<?xml version="1.0" encoding="UTF-8"?>
<svg id="Layer_2" data-name="Layer 2" xmlns="http://www.w3.org/2000/svg" viewBox="0 0 43.79 48.54">
  <defs>
    <style>
      .cls-1 {
        fill: #373463;
        stroke: #373463;
        stroke-miterlimit: 10;
      }
    </style>
  </defs>
  <g id="Layer_6" data-name="Layer 6">
    <path class="cls-1" d="m5.25,48.04h33.28c2.63,0,4.75-2.13,4.75-4.75v-26.15c0-1.31-1.06-2.38-2.38-2.38h-7.13v-1.91c0-5.71-3.81-10.96-9.4-12.1-7.64-1.56-14.37,4.27-14.37,11.63v2.38H2.88c-1.31,0-2.38,1.06-2.38,2.38v26.15c0,2.63,2.13,4.75,4.75,4.75ZM14.76,12.39c0-4.68,4.54-8.33,9.45-6.76,2.96.94,4.81,3.89,4.81,6.99v2.15h-14.26v-2.38Zm-9.51,7.13h4.75v4.75h4.75v-4.75h14.26v4.75h4.75v-4.75h4.75v23.77s-33.28,0-33.28,0v-23.77Z"/>
  </g>
</svg>