<?xml version="1.0" encoding="UTF-8"?>
<svg id="Layer_2" data-name="Layer 2" xmlns="http://www.w3.org/2000/svg" viewBox="0 0 14.68 16.1">
  <defs>
    <style>
      .cls-1, .cls-2 {
        fill: none;
        stroke: #fff;
        stroke-miterlimit: 10;
        stroke-width: 1.5px;
      }

      .cls-2 {
        stroke-linecap: round;
      }
    </style>
  </defs>
  <g id="Layer_1-2" data-name="Layer 1">
    <g>
      <path class="cls-1" d="m2.3,15.35h10.07c.9,0,1.61-.68,1.55-1.48l-.67-8.34c-.06-.72-.73-1.28-1.55-1.28H2.97c-.81,0-1.49.56-1.55,1.28l-.67,8.34c-.06.8.65,1.48,1.55,1.48Z"/>
      <path class="cls-2" d="m9.72,7.63c0,1.31-1.06,2.38-2.38,2.38s-2.38-1.06-2.38-2.38"/>
      <path class="cls-1" d="m5.04,4.58v-1.53c0-1.27,1.03-2.3,2.3-2.3h0c1.27,0,2.3,1.03,2.3,2.3v1.53"/>
    </g>
  </g>
</svg>