<?xml version="1.0" encoding="UTF-8"?>
<svg id="Layer_2" data-name="Layer 2" xmlns="http://www.w3.org/2000/svg" viewBox="0 0 104.58 62.82">
  <defs>
    <style>
      .cls-1 {
        fill: #ffc83a;
      }

      .cls-2 {
        font-family: Roboto-Bold, Roboto;
        font-size: 10.83px;
        font-weight: 700;
      }

      .cls-3 {
        fill: #252f39;
      }
    </style>
  </defs>
  <g id="Layer_11" data-name="Layer 11">
    <g>
      <path class="cls-1" d="m69.29.5c9.16,1.4,18.11,4.18,26.44,8.24,5.24,2.55,9.5,6.24,8.76,12.62-.61,5.29-3.89,10.06-6.81,14.36-7.59,11.21-22.5,33.25-36.97,18.14-5.21-5.44-8.53-12.46-10.89-19.54s-4.62-15.57-3.17-23.41C48.71-.09,60.36-.86,69.29.5Z"/>
      <text class="cls-2" transform="translate(29.39 58.82) scale(.89 1)"><tspan x="0" y="0">meroojco</tspan></text>
      <path class="cls-3" d="m.62,62.52c-.21.1-.41.2-.62.3.53-.8,1.29-1.4,2.05-1.99,6.02-4.69,12.19-9.18,18.37-13.66,6.03-4.38,12.09-8.73,18.15-13.07,5.91-4.23,11.83-8.45,17.76-12.66,4.37-3.1,8.74-6.2,13.11-9.3,1.44-1.02,2.87-2.04,4.31-3.05,1.86-1.29,4.33.4,3.79,2.6l-4.1,10.44c-.17.51-.08,1,.17,1.38.39.59,1.13.87,1.8.65,1.21-.4,2.4-1.55,3.46-2.27l10.42-7.11c1.67-1.01,4.8,0,3.76,3.13l-8.76,17.73c-.41.83-.41,1.6-.1,2.06.72,1.08,2.42.03,3.22-.39,1.09-.57,2.2-1.08,3.32-1.6,0,0,3.72-1.74,3.72-1.74,1.31-.62,1.1.21.38.67,0,0-6.76,4.77-6.76,4.77-1.81,1.28-3.54,2.65-5.41,3.84-1.47.94-3.43,1.93-4.86.28-1.53-1.77.14-4.52.81-6.36l.97-2.67c.38-1.04,1.38-2.73.16-3.56-.97-.66-2.24.31-2.98.91-2.05,1.64-4.13,3.25-6.22,4.85-1.04.8-2.09,1.6-3.13,2.39-.94.71-1.88,1.66-2.94,2.19-2.28,1.58-5.33,1.21-4.59-1.46,0,0,1.26-4.31,1.99-6.81.19-.64.46-1.29.55-1.95.16-1.18-.64-2.36-1.92-2.26-.69.06-1.32.42-1.92.78-10.14,5.95-20.24,11.98-30.37,17.97-9.03,5.34-18.15,10.41-27.59,14.98Z"/>
    </g>
  </g>
</svg>