<?xml version="1.0" encoding="UTF-8"?>
<svg id="Layer_2" data-name="Layer 2" xmlns="http://www.w3.org/2000/svg" viewBox="0 0 51.95 14.86">
  <defs>
    <style>
      .cls-1 {
        fill: #ffc83a;
      }
    </style>
  </defs>
  <g id="Layer_1-2" data-name="Layer 1">
    <g>
      <path class="cls-1" d="m1.22,9.34c0-.16.19-.2.3-.29.08-.07.33,0,.34.07,0,.03,0,.05,0,.08.05.2-.1.41.08.6.31,0,.45.2.65.33.08.05.27,0,.33-.1.04-.07.07-.13.1-.2.07.05.14.1.22.15.02.01.07,0,.2.05.06.02.04-.02,0-.04-.02-.01-.07-.01-.09,0-.02.01-.02.05,0,.07.03.03.08.05.12.07,0,0,.04-.03-.03-.09-.13-.22,0-.41-.24-.55-.08-.04-.08-.07,0-.11.08-.05.14-.13.23-.16.15-.04.35,0,.48-.07.12-.06.06-.23.22-.32.12-.06.11-.07.3,0,.08.03.2.06.28.04.31-.1.28-.39.52-.54-.05-.03-.09-.08-.15-.08-.14-.01-.28,0-.27-.16.21,0,.3-.22.54-.17.01-.04.03-.07.04-.11-.3-.02-.45-.2-.66-.33-.05-.03-.19-.01-.28.01-.27.08-.27.09-.27-.07,0-.05,0-.11,0-.16.01-.1.23-.19.3-.13.18.17.41.17.65.14.02,0,.07-.09.05-.1-.09-.08-.18-.16-.29-.22-.08-.05-.1-.08,0-.11.03-.01.07-.03.09-.02.09.02.2.04.26.09.11.08.17.04.2-.03.03-.07,0-.16,0-.23.01-.1.18-.18.3-.13.09.04.15.14.23.14.08,0,.15-.14.23-.14.25,0,.47-.02.65-.17.43.06.54-.09.51-.38,0-.07.12-.09.2,0,.08.09.2.06.2-.02-.01-.16.13-.23.25-.32.14-.12.15,0,.18.06.03.04,0,.12.04.14.08.03.22.07.27.05.17-.09.31-.21.45-.33.06-.05.06-.14.08-.21.06-.26.38-.55.72-.54.25,0,.33-.18.54-.17-.03.17.03.3.22.41.13.07.27.11.36.02.25-.26.73-.29.97-.55,0,0,.09.03.14.05.09.03.21.09.27.07.18-.07.39-.16.36-.34-.04-.22.15-.32.36-.45.03.08.04.15.08.22.02.04.11.09.12.08.1-.07.2-.14.29-.22,0,0-.1-.06-.14-.11-.12-.15-.07-.27.13-.28.22,0,.41,0,.55-.16.08-.08.19-.15.29-.22.05-.03.12-.1.16-.09.47.08.76-.14,1.1-.31.12-.06.35,0,.52-.02.12-.02.22-.11.34-.15.17-.05.33.05.47.25.02.02.05.05.07.05.02,0,.06-.03.07-.05.02-.05.04-.1.03-.15-.03-.14.05-.24.19-.34.18-.12.18-.13.43-.01.09.05.21.08.21,0,0-.22.18-.35.42-.38.26-.03.56-.07.76.15.01.01.07,0,.3.05.19.03.18,0,.17,0-.09-.02-.18-.03-.27-.04-.1-.02-.13,0-.1.07.01.02.04.04.06.05.14.05.32.04.14-.08-.18-.09-.15-.18-.13-.17.39.01.69-.15,1-.29.16-.07.16.03.23.05.19.08.33.07.37-.08.03-.12.12-.18.21-.25.07-.06.11-.07.23-.02.36.16.7.15,1-.11.18-.16.21-.16.5,0,.14.07.35.02.44.16.03.05.11.05.14-.03.03-.07.02-.15.02-.23,0-.09.04-.16.15-.17.17-.02.35-.01.53,0,.28.01.51-.04.76-.15.21-.09.52.04.77-.14.14-.1.48.02.63-.18.14.13.32.17.54.15.17-.01.35.02.46-.11.05-.06.09-.04.15.02.19.18.45.08.68.09.25,0,.27-.28.54-.27.06.14.1.3.3.38.08.03.19.05.28.06.14,0,.29-.02.42,0,.13.03.08.11-.01.16-.14.08-.04.13.05.14.1.02.21,0,.31,0,.14,0,.16-.04.03-.18-.05-.06-.07-.07.02-.12.08-.05.15-.11.23-.17.21.1.34.23.37.42,0,.01.05.04.07.03.03,0,.07-.03.07-.05.01-.1,0-.21.03-.31.02-.08.1-.12.2-.03.1.09.26.14.35.05.14-.14.38-.09.52-.21.15-.13.29-.07.43.03.17.13.31.06.43-.05.06-.05.15-.05.14.02-.02.29.24.24.48.26.11,0,.21.11.32.12.08,0,.15-.09.24-.12.05-.01.13.01.19.03.03,0,.05.03.08.05.11.09.24.1.36.02.11-.07.2-.15.3-.22.12-.08.15-.08.36.02.08.03.13.12.23.02.03-.03.09-.05.15-.06.02,0,.07.04.07.05-.08.29.46.31.43.58,0,.02.01.05.03.07.05.07.09.07.15,0,.14-.15.44-.1.59-.27.11-.12.28-.26.46-.29.47-.08.47-.32.46-.59,0-.07.05-.14.08-.24.1.08.18.13.24.2.05.06.12.18.09.2-.29.21-.2.48-.2.73,0,.24.48.42.78.29.11-.05.18-.13.32-.24-.26-.03-.46-.05-.73-.08.29-.21.52-.39.76-.56,0,0,.13.05.12.07-.04.2.19.26.32.38.16.14.35.26.52.39.11.09.24.1.38.08.16-.01.24.08.35.13.16.07.26.03.34-.15.04-.08.07-.14.19-.14.06,0,.12.03.19.04-.02.04-.03.08-.05.11-.02.04-.08.1-.07.11.14.12.27.27.45.33.24.08.53.09.77-.04.02,0,0-.05,0-.08.26.02.33.24.56.3.15-.11.04-.25.08-.37,0-.03.12-.06.13-.05.1.07.19.13.35.13.22,0,.26-.01.37-.26.01-.02.05-.04.08-.06.15.1.29.2.43.3.11-.02.12-.19.32-.08.18.11.17.27.29.39.06.05.17.1.03.17-.46.21-.32.55-.31.85,0,.08.16.16.26.23.02.01.1-.02.14-.04.02,0,0-.05,0-.08.02-.14-.09-.32.27-.33.16,0,.3-.22.47,0,.02.02.13,0,.2.01.03,0,.08.04.07.05-.04.06-.09.12-.15.17-.06.05-.12.14-.22.03-.06-.07-.15-.1-.22,0-.03.04-.02.11,0,.15.02.04.09.08.14.11.12.09.25.19.37.28.05-.03.09-.07.15-.1.15-.08.34-.07.35.01.04.27.28.35.58.45.22.08.51.13.67.31.03.04.11.19.21.06.11-.15.46-.02.46-.24,0-.16,0-.31.2-.42.03-.02-.03-.14-.05-.21,0-.02-.04-.04-.07-.06-.09-.04-.09-.07,0-.11.18-.09.07-.15-.03-.22-.12-.08-.11-.08-.3,0-.06.02-.12.04-.18.05-.13.01-.18-.05-.2-.13-.02-.09.04-.18.14-.17.26,0,.56-.09.78.12.04.04.19.02.29.03.16.02.35-.05.47.08-.14.08-.18.2-.24.32-.07.16-.25.29-.36.44-.06.09.23.11.12.22-.06.06-.15.11-.22.17-.05.04-.09.07-.14.11.07.06.16.11.22.17.06.06.1.07.15.02.11-.14.3-.1.47-.11.13,0,.2.05.2.13,0,.12.01.24-.1.36-.23.25-.41.53-.31.85.03.1.14.07.21,0,.02-.02.06-.06.07-.05.05.02.1.06.15.07.28.05.04.48.51.38.17.13.35.26.52.39.2.15.4.3.6.45-.16.24-.27.5-.65.67.14.03.24.04.32.07.08.03.21.05.06.14-.16.1-.15.19-.03.33.21.24.16.3-.21.31-.21,0-.33.04-.31.22,0,.02-.03.04-.05.06-.02.02-.06.04-.08.04-.24-.03-.44.04-.64.14-.22-.24-.32,0-.44.07-.16.1-.15.11-.37-.04-.1.07-.2.15-.3.22-.08.06-.13.08-.23,0-.25-.19-.25-.19-.11-.38.11-.15.24-.29.32-.45.02-.04-.05-.16-.11-.18-.07-.02-.23.01-.27.06-.1.13.05.3-.15.43-.15.09-.1.29-.29.38-.03.01.05.19.07.19.5,0,.48.38.73.56.01,0,0,.05-.01.05-.06.02-.13.06-.18.04-.09-.02-.16-.08-.25-.11-.04-.01-.13.01-.14.04-.02.05-.02.1-.01.15.04.16-.1.23-.22.33-.1.09-.19.04-.2-.03,0-.12-.07-.2-.18-.26-.08-.05-.12-.14-.25-.11-.09.02-.18.06-.25.11-.06.04-.12.05-.15-.02-.03-.07-.01-.15-.02-.23,0-.05-.04-.13-.06-.13-.35,0-.46-.3-.76-.35-.16-.03-.23-.13-.34-.15-.11-.01-.16.13-.33.15-.15.01-.29.11-.44.14-.11.03-.18.05-.19.15-.01.09.04.16.15.17.3.05.48.16.5.4,0,.01.12.04.14.03.11-.09.28-.15.27-.31,0-.08.08-.13.21-.12.1,0,.21,0,.31.01.05,0,.09.08.1.12.01.15,0,.31,0,.45-.31.09-.59.03-.87.05-.14,0-.28.02-.42,0-.09-.01-.16-.08-.25-.12-.15-.06-.3-.04-.36.04-.04.06.05.2.16.24.03,0,.07,0,.1,0,.18.06.23.38.06.45-.07.03-.2,0-.28-.02-.1-.04-.15-.18-.27,0-.25.4-.35.44-.88.52-.19.03-.22.13-.09.29q.1.13-.03.22c-.12.09-.11.08-.3.01-.08-.03-.21-.07-.28-.04-.06.03-.06.13-.11.2-.02.04-.11.09-.12.09-.15-.11-.3-.22-.45-.33-.34-.26-.34-.26-.1-.65.03-.04.03-.1.03-.15,0-.02-.02-.05-.04-.07-.05-.06-.09-.05-.15.01-.11.1-.28.17-.23.32-.2.08-.39.19-.6.24-.15.03-.35.05-.47-.08-.02-.02-.05-.05-.07-.05-.23-.02-.48-.01-.7-.07-.18-.04-.27-.21-.48-.27-.45-.13-.52-.17-.96-.13-.03,0-.06.03-.07.05,0,.01.03.05.06.05.16.02.33.04.49.06.02,0,.06.04.06.05,0,.02-.04.05-.07.05-.21.01-.44.06-.61,0-.17-.05-.34-.13-.52-.19-.09-.03-.12-.13-.26-.11q-.02-.31-.33-.32c-.1,0-.2,0-.34,0-.02,0,.03,0,.04,0,.02-.01.02-.05,0-.07-.05-.05-.11-.12-.18-.02,0,.01.06.06.14.09.03.15.05.28.23.38.12.07.11.08.28-.02.05-.03.11-.03.17-.05,0,.16,0,.32,0,.51.01.02,0-.03,0-.03-.1,0-.2-.01-.29,0-.04,0-.08.06-.11.09,0,0,.04.04.07.05.13.03.25.03.33-.11.17-.04.34-.06.47.07.15.16.35.24.62.21.32-.04.62.01.81.24.09.11.24.08.38.08.21-.01.29.12.41.21.02.01-.03.1-.05.1-.2,0-.42.07-.57-.1-.06-.06-.09-.06-.15,0-.12.12-.25.14-.43.04-.26-.14-.28-.13-.5.04-.05.03-.09.07-.13.11.07.06.15.11.22.17.22.17.24.18.08.38-.08.1-.08.19-.1.29-.02.07-.08.18-.12.18-.16,0-.26.04-.36.13-.01.01-.11,0-.14-.03-.13-.09-.26-.18-.37-.28-.13-.12-.28-.14-.46-.12-.17.02-.23-.14-.34-.14-.11,0-.16.16-.33.14-.23-.03-.48.06-.68-.11-.05-.04-.19-.02-.28-.05-.26-.08-.4.35-.72.09-.21-.17-.54-.11-.79-.07-.33.05-.48-.17-.76-.17-.24,0-.48-.02-.72-.03-.14-.25-.55-.01-.72-.22-.03-.03-.11-.06-.17-.06-.24,0-.49,0-.73,0-.24,0-.45,0-.66-.15-.13-.1-.31.14-.41.12-.14-.03-.27-.21-.43-.1-.29.2-.54.21-.81,0,0,0-.14.08-.21.13-.26-.31-.83.01-1.08-.31,0-.01-.07,0-.1,0-.23.03-.43.32-.68.03-.27-.01-.55-.03-.82-.03-.11,0-.19.05-.17.15-.17,0-.35.03-.46-.11-.17-.22-.46-.17-.72-.22-.23-.04-.36.33-.58.04-.24,0-.48-.02-.72-.02-.21,0-.4-.01-.56.13-.05.05-.15-.17-.37-.04-.23.13-.56.14-.84-.03-.15-.09-.35-.13-.52-.2-.16-.07-.41,0-.62-.02-.16,0-.24.06-.36.12-.18.08-.38.09-.56-.03-.24-.16-.35.15-.6.09-.19-.04-.3-.23-.53-.17-.06.02-.11.06-.16.09-.17.12-.3.07-.44-.04-.04-.03-.12-.04-.22-.06-.02,0,.02,0,.05,0,0-.02.01-.05,0-.07-.05-.05-.11-.12-.18-.02,0,.01.06.06.14.09.05.03.06.07.05.08-.37.15-.69.09-.84-.18-.02-.04-.02-.13.02-.15.3-.15.07-.24-.07-.33-.16-.1-.24.14-.28.09-.19-.25-.64-.02-.8-.27-.05.02-.11.03-.15.06-.1.1-.17.03-.22-.03-.06-.06-.12-.08-.15-.01-.03.07-.02.14-.01.21,0,.02.04.05.07.05.24.05.56-.11.73.12.11.15.18.31.27.47.01.02.04.04.07.06.09.04.1.09.03.11-.09.02-.2.04-.28.01-.09-.03-.15-.1-.22-.16-.09-.08-.19-.15-.35-.13-.19.03-.32-.04-.44-.15-.11-.1-.22-.17-.43-.18-.26,0-.36.13-.56.26.19.07.37.15.58.23-.5.25-.9.34-1.35.31-.16-.01-.24-.08-.34-.15-.15-.1-.15-.14.08-.16.19-.02.23-.09.22-.2-.01-.08-.08-.14-.21-.12-.03,0-.07,0-.1,0h-.31c.02-.1-.05-.15-.16-.15-.14-.01-.28,0-.26.15-.1,0-.21,0-.31,0-.29,0-.3-.02-.32-.2-.02-.19.04-.3.33-.28.02,0,.06-.03.07-.05,0-.01-.02-.05-.03-.05-.23-.01-.47-.02-.7-.02-.03,0-.08.08-.08.12-.01.13.02.26-.01.39-.02.1-.22.12-.21.25.01.14-.06.19-.22.07-.2-.15-.57.03-.72-.22-.05.03-.11.06-.15.1-.06.07-.09.07-.15,0-.08-.1-.25-.16-.35-.09-.21.16-.36.2-.6.02-.1-.08-.31-.06-.43-.17-.04-.03-.22-.02-.27.02-.13.12-.29.12-.47.12-.17,0-.33-.02-.48.09-.18.14-.21-.15-.4-.1-.16.04-.35,0-.52.01-.03,0-.07.04-.07.05.03.04.06.08.1.1.09.03.18.05.28.07-.09.07-.18.15-.27.22-.01,0-.11-.03-.14-.06-.1-.09-.18-.04-.2.03-.02.1,0,.21.02.31.02.07.08.06.15.02.07-.05.16-.1.25-.11.21-.02.42,0,.63,0-.09.23-.28.34-.6.32-.14,0-.28,0-.42,0-.17,0-.25-.05-.24-.18,0-.12-.36-.22-.03-.35-.13-.11-.25-.23-.39-.33-.11-.09-.29-.11-.36-.06-.05.04-.11.34-.06.37.2.15.41.29.59.45.05.04.04.16-.01.2-.05.04-.22.07-.27.04-.14-.09-.25-.17-.45-.14-.16.02-.26-.05-.35-.13-.14-.12-.28-.23-.53-.2-.08,0-.18-.05-.26-.08-.23-.08-.28-.09-.84-.07-.14,0-.28,0-.42,0-.28,0-.74-.16-.97-.33-.1-.08-.11-.2,0-.27.1-.07.21-.13.32-.19.08-.04.21-.05.23-.1.02-.06-.02-.15-.08-.2-.2-.17-.43-.33-.63-.48-.13.04-.26.23-.3.06-.05-.21-.26-.29-.39-.43-.02-.02.03-.1.05-.1.2,0,.42-.07.57.1.05.06.11.06.15-.01.02-.05.05-.12.02-.14-.24-.18-.39-.4-.56-.61-.1-.12.05-.12.12-.12.17,0,.24-.06.24-.18,0-.13-.05-.23-.16-.35-.15-.15-.04-.25.26-.26.03,0,.07,0,.1,0-.07.26.25.41.33.63,0,0,.06,0,.09,0-.03.1.06.2-.07.29-.05.04-.2.07-.06.17.13.08.26.18.37.28.12.1.26.03.49.1.06.02.04-.02,0-.04-.02-.01-.07-.01-.09,0-.02.01-.02.05,0,.07.03.03.08.05.12.07,0,0,.04-.03-.03-.09-.1-.07-.08-.1-.1-.12-.26-.22-.31-.3-.47-.67-.01-.03-.11-.03-.16-.05ZM41.23,2.17s-.06-.07-.1-.09c-.02-.01-.07-.01-.09,0-.02.01-.02.05,0,.07.03.03.08.05.12.07,0,0,.04-.03-.22-.14h.09s.01-.05,0-.07c-.05-.05-.11-.12-.18-.02,0,.01.06.06.38.18ZM15.28,10.76c-.05.03-.13.04-.16.08-.05.07,0,.07.1.08.12.02.16.17.33.15.06,0,.17-.04.17-.06-.02-.1-.27-.24-.6-.02.01-.02,0-.07,0-.07-.1,0-.2-.01-.29,0-.04,0-.08.06-.11.09,0,0,.04.04.07.05.13.03.25.03.5-.3Zm33.75-2.84c0,.11.06.16.63.41,0-.05.02-.1,0-.15-.03-.07-.1-.12-.22-.11-.07,0-.19,0-.19,0-.01.07-.04.16,0,.22.06.08.17.15.27.21.02.01.12-.01.13-.04.02-.04.01-.1-.41-.4,0-.11-.06-.16-.21-.16-.04-.16-.2-.24-.37-.31-.04-.02-.16,0-.18.02-.05.06-.08.13-.08.2,0,.03.08.09.13.09.17.01.33,0,.5,0Zm-32.44-3.47c.17,0,.33,0,.5,0,.03,0,.07-.02.07-.04,0-.04,0-.08-.03-.1-.06-.06-.13-.12-.21-.16-.13-.07-.3.01-.33.15,0,.05,0,.1,0,.22,0-.02.01-.06,0-.07-.02-.01-.07-.01-.09,0-.07.04-.16.08-.03.14.02,0,.08-.04.12-.14Zm6.29-2.05s.08,0,.1,0c.21-.08.29-.28.56-.31-.02-.04-.04-.12-.07-.13-.38-.08-.59-.01-.76.23-.03.04-.02.11.02.15.03.04.11.05,1.6-.08.28-.01.56-.02.83-.03.22-.25.58-.06.85-.16.08-.03.06-.06-.02-.11-.13-.08-.22-.21-.43-.17-.26.04-.53-.06-.79.09-.25.15-.6.04-.9.07-.13.01-.16.18-.33.15,0,.03,0,.06,0,.08.01.02.04.05.07.05.24.02.48.02-.73.18ZM7.42,7.6s.1-.07.15-.09c.13-.07.21-.18.4-.22.26-.06.27-.17.08-.32-.2-.15-.31-.19-.43-.12-.11.07-.2.14-.3.22-.2.16-.23-.14-.39-.09-.06.02-.13.02-.18.05-.17.08-.23.26-.48.27-.21,0-.29.22-.54.18-.07-.01-.1.09-.03.1.19.04.35.13.52.19.14.05.25-.05.34-.13.23-.21.49-.27.79-.08.03.02.05.04.07.06Zm38.34.63s.07-.02.07-.04c.02-.15.19-.26.25-.4.04-.09,0-.21-.05-.3-.03-.04-.18-.03-.28-.05-.09-.02-.19-.03-.28-.07-.38-.14-.41-.13-.44.14-.01.11-.06.18-.14.27-.17.18-.09.27.2.29.2.01.42-.07.58.09.02.02.05.04.07.06Zm-26.05,2.93c-.1-.14-.18-.27-.27-.4-.02.02-.05.04-.07.05-.08.04-.17.09-.26.1-.24.01-.49,0-.73.02-.04,0-.11.13-.09.19.02.07.12.11.18.18.12.13.4.06.51.22.12-.07.24-.15.37-.21.08-.04.18-.04.27-.07.05-.02.08-.06.09-.07ZM44.19,2.32c0-.08,0-.16,0-.24.01-.1-.06-.15-.17-.15-.09,0-.24.06-.24.08,0,.16-.07.24-.3.23-.07,0-.14-.01-.21,0-.05.01-.08.06-.12.09.06.02.11.06.17.06.36.03.1.12.06.22-.04.1.3.3.41.25.14-.06.3-.14.38-.24.06-.08.01-.2.01-.31Zm-.31,6.71c-.18.09-.09.23-.11.34-.02.11-.35.21-.03.34-.06.08-.13.15-.18.24-.02.04.02.1.05.14.04.05.08.02.15-.02.27-.19.28-.52.67-.63-.2-.15-.37-.28-.54-.41Zm3.38-.64c.19.05.29-.07.41-.16.03-.03.04-.07.06-.11-.23-.03-.38-.17-.6-.2-.03,0-.07,0-.1,0-.03.01-.06.03-.07.05-.13.26,0,.42.3.41Zm-8.66-.36s.26-.09.5-.17c0,0,0-.04-.01-.05-.02-.02-.05-.05-.08-.04-.16.02-.36-.06-.49.06-.14.14-.2,0-.3-.03-.07-.03-.21-.03-.28,0-.15.09.04.11.09.16.08.09.19.15.58.08ZM27.32,1.86s-.07-.09-.1-.09c-.27,0-.54,0-.82,0-.09,0-.14.15-.08.26.04.07.08.06.15.01.05-.03.09-.17.21-.05.09.09.22.14.35.09.12-.04.2-.14.3-.21Zm2.81,7.8c.17-.01.34-.01.5-.04.03,0,.06-.08.07-.13.03-.09-.06-.17-.15-.15-.28.05-.52.19-.83.18-.02,0-.06.04-.06.05,0,.02.04.05.07.05.13.01.27.02.4.03ZM13.43,4.49s.07.08.11.12c.1-.15.35-.12.49-.22.05-.03.02-.14,0-.2-.01-.03-.11-.06-.16-.05-.23.04-.4.18-.43.35Zm4.43,1.07c.1,0,.21,0,.3,0,.03,0,.08-.09.08-.1-.13-.07-.18-.22-.39-.22-.21,0-.25.15-.39.22.03.03.06.09.09.1.1.01.2,0,.3,0Zm22.75,2.92c.1.07.18.15.29.21.14.08.33,0,.34-.15,0-.08.01-.15,0-.23,0-.02-.11-.06-.13-.05-.17.06-.32.14-.49.21ZM18.7,3.11s0-.05,0-.08c-.02-.05-.04-.09-.06-.13-.05.02-.1.02-.14.05-.08.05-.16.1-.21.16-.03.04-.03.12,0,.15.07.04.17.07.26.08.05,0,.13-.04.15-.08.03-.04,0-.1,0-.15Zm-3.69,1.65s.07,0,.1,0c.06-.01.12-.03.18-.05-.02-.04-.04-.08-.07-.11-.07-.06-.14-.12-.22-.15-.05-.02-.16-.02-.19,0-.06.05-.09.13-.1.19,0,.04.06.09.11.11.06.02.13,0,.2,0Zm-4.11.95c-.1,0-.21,0-.31,0-.03,0-.06.06-.08.1,0,.01.04.05.07.05.19.02.42-.06.56.11.06.07.1.07.14,0,.02-.04.04-.1.03-.14-.01-.04-.06-.1-.11-.11-.1-.02-.2,0-.31,0Zm33.68,3.09s-.06-.09-.1-.09c-.2,0-.41,0-.61,0-.03,0-.06.06-.08.1,0,.01.05.05.07.05.15-.01.27.01.35.11.06.07.09.07.15,0,.06-.06.14-.11.22-.17Zm-13.89,1s-.17.04-.19.09c-.04.09-.02.2,0,.3,0,.02.12.06.13.05.1-.07.2-.14.28-.22.07-.07-.04-.22-.22-.22ZM39.45,1.77c.08-.06.15-.12.22-.16.1-.06.09-.14-.01-.15-.14-.01-.26-.02-.34-.11-.05-.07-.1-.07-.14,0-.02.04-.05.11-.03.14.09.1.2.19.3.29Zm-10.63.04c0-.16-.09-.22-.26-.2-.11.01-.18.06-.17.15.01.12.1.19.26.15.07-.02.13-.08.16-.11Zm13.17.59c.07,0,.14,0,.2,0,.03,0,.05-.03.07-.05.01-.01,0-.05,0-.05-.16-.07-.38-.06-.49-.21-.03.04-.09.08-.09.12-.02.16.04.19.32.19Zm-30.65,3.07c.07.05.13.11.2.16.04.03.12.07.14.06.1-.06.19-.14.29-.21,0,0-.04-.05-.07-.05-.19-.02-.38-.08-.56.05Zm34.32,3.33c.07.05.15.1.22.15.04.02.09.04.14.05.02-.04.06-.09.07-.13.01-.07,0-.15,0-.23,0-.02-.04-.05-.06-.05-.05,0-.1.02-.14.04-.08.05-.14.11-.23.17Zm-40.54,1.02c.07,0,.14,0,.2,0,.03,0,.06-.03.07-.05.01-.01.01-.05,0-.05-.16-.08-.39-.06-.49-.21-.03.04-.09.08-.1.12-.02.16.04.19.31.19Zm27.72-7.11c-.05-.06-.08-.1-.12-.14-.02.02-.05.03-.07.05-.05.04-.1.07-.14.11-.03.03-.05.07-.07.11.09.02.2.06.27.04.07-.02.09-.11.13-.16Zm1,.12s-.22-.26-.28-.26c-.02,0-.07.03-.07.05,0,.07-.03.16.01.2.05.04.17.04.27.06.02,0,.05-.03.07-.05Zm11.74,3.52c.07,0,.14,0,.21,0,.03,0,.07-.04.07-.05-.02-.04-.05-.1-.08-.1-.14-.01-.27,0-.41,0-.03,0-.07.04-.07.05.02.04.04.09.08.1.06.02.13,0,.2,0Zm-37.19.35c.01-.16-.11-.24-.31-.19-.04,0-.09.08-.08.1.06.06.14.11.21.16.02.02.05.03.07.05.03-.04.07-.08.1-.12Zm32.67,1.2c-.05-.06-.09-.1-.12-.14-.02.02-.05.04-.07.05-.05.04-.1.07-.14.11-.03.03-.04.07-.06.11.09.02.2.06.27.04.07-.02.09-.12.13-.17Zm5.68-.05s-.05-.06-.08-.06c-.09,0-.21-.03-.27,0-.06.04-.07.13-.07.2,0,.02.11.07.13.06.1-.06.2-.13.29-.2Zm-40.87,1.09c-.07-.05-.15-.1-.22-.15-.04-.02-.09-.03-.14-.05-.02.07-.08.14-.06.2.03.09.22.11.34.06.03-.01.05-.03.09-.06Zm39.24.06c.15,0,.18-.11.28-.16.03-.01.05-.03.07-.05-.05-.03-.1-.07-.16-.08-.22-.02-.32.07-.26.22,0,.02.04.04.07.06Zm-3.22.41c-.07-.05-.15-.1-.22-.15-.04-.02-.09-.03-.14-.05-.02.07-.08.14-.06.2.03.09.22.11.34.06.03-.01.05-.03.09-.06Zm-5.81,1.82c.07,0,.14.01.2,0,.04-.01.06-.06.08-.1,0-.01-.04-.05-.07-.05-.14,0-.27,0-.41,0-.03,0-.06.06-.08.1,0,.01.04.05.07.05.07,0,.14,0,.21,0Zm-16.32.48l-.06-.13s-.1.02-.14.05c-.05.03-.1.07-.14.11-.02.02-.05.04-.07.05.05.03.1.07.16.08.18.02.25-.03.26-.15Zm-6.67.44c.15,0,.18-.11.28-.16.03-.01.05-.03.07-.05-.05-.03-.1-.07-.16-.08-.22-.02-.32.07-.26.22,0,.02.04.04.07.06Zm33.63-5.57s-.04-.04-.06-.05c-.05-.04-.1-.07-.14-.11-.07-.07-.15-.09-.21,0-.03.04-.02.1,0,.15.04.09.22.12.34.07.03-.01.05-.03.07-.05Zm-11.68-5.36c-.05.13-.1.2-.1.27,0,.04.06.08.1.12.04-.04.1-.08.1-.12,0-.07-.05-.13-.1-.27Zm-7.09.6c-.06-.08-.27-.08-.35,0-.01.01-.01.04,0,.05.06.08.27.08.35,0,.01-.01,0-.04,0-.05Zm-6.08.54s-.07-.08-.11-.12c-.04.04-.1.08-.1.12,0,.07.06.13.1.2.04-.07.07-.13.11-.2Zm.63,0s-.07-.08-.11-.12c-.04.04-.1.08-.1.12,0,.07.06.13.1.2.04-.07.07-.13.11-.2Zm9.59.13c-.05.13-.1.2-.1.27,0,.04.06.08.1.12.04-.04.1-.08.1-.12,0-.07-.05-.13-.1-.27Zm-19.1,2.86s0-.04,0-.05c-.08-.08-.29-.08-.35,0,0,.01,0,.04,0,.05.08.08.29.08.35,0Zm35.99-.08s-.05,0-.07,0c-.11.06-.1.22,0,.26.02,0,.05,0,.07,0,.11-.06.1-.21,0-.26Zm-23.15,3.92c-.05.03-.11.05-.16.08.05.03.11.08.16.07.09,0,.18-.05.26-.07-.09-.03-.17-.05-.26-.08Zm9.79,1.42c.05-.03.11-.05.16-.08-.05-.03-.11-.08-.16-.07-.09,0-.18.05-.26.07.09.03.17.05.26.08Zm.89.08c-.18-.04-.27-.07-.36-.07-.05,0-.11.05-.16.07.05.03.11.08.16.07.09,0,.18-.03.36-.07Zm-20.35.41c.09-.03.15-.04.21-.07,0,0,0-.04,0-.05-.08-.08-.3-.08-.34,0-.01.03.09.08.14.11Zm-1.77.07c-.18-.04-.27-.07-.36-.07-.05,0-.11.05-.16.07.05.03.11.08.16.07.09,0,.18-.03.36-.07Zm-11.02,1.04c.08-.04.13-.07.18-.09-.05-.03-.11-.08-.16-.07-.09,0-.18.05-.26.07.08.03.17.06.24.09Zm34.49.25s0-.04,0-.05c-.08-.08-.29-.08-.35,0,0,.01,0,.04,0,.05.08.08.29.08.35,0Zm.21.74c-.06-.08-.27-.08-.35,0-.01.01-.01.04,0,.05.06.08.27.08.35,0,.01-.01,0-.04,0-.05Zm-5.69-11.62s-.05-.07-.07-.1c-.02.02-.07.04-.07.05.01.04.04.07.07.11.02-.02.05-.04.07-.06Zm4.77-.1s-.07.04-.07.05c.01.04.04.07.07.11.02-.02.07-.04.07-.05-.01-.04-.04-.07-.07-.11Zm-.84.16s-.07.04-.07.05c.01.04.04.07.07.11.02-.02.07-.04.07-.05-.01-.04-.04-.07-.07-.11Zm-10.77,2.03s.09-.04.14-.06c-.02-.02-.05-.05-.07-.05-.05,0-.09.03-.14.05.02.02.05.04.07.06Zm-11.53.16s.05-.04.07-.06c-.05-.02-.09-.04-.14-.05-.02,0-.05.03-.07.05.05.02.09.04.14.06Zm1.16.12s.05.04.07.06c.02-.04.05-.07.07-.11,0-.01-.04-.03-.07-.05-.03.03-.05.07-.07.1Zm28.28.39s-.05.04-.07.06c.05.02.09.04.14.05.02,0,.05-.03.07-.05-.05-.02-.09-.04-.14-.06Zm3.85,0s-.09.04-.14.06c.02.02.05.05.07.05.05,0,.09-.03.14-.05-.02-.02-.05-.04-.07-.06Zm-32.37.69s-.05-.05-.07-.05c-.05,0-.09.03-.14.05.02.02.05.05.07.05.05,0,.09-.03.14-.05Zm18.72.02s-.05-.07-.07-.1c-.02.02-.07.04-.07.05.01.04.04.07.07.11.02-.02.05-.04.07-.06Zm-18.4.06s-.07.04-.07.05c.01.04.04.07.07.11.02-.02.07-.04.07-.05-.01-.04-.04-.07-.07-.11Zm-2.92.18s-.09.04-.14.06c.02.02.05.05.07.05.05,0,.09-.03.14-.05-.02-.02-.05-.04-.07-.06Zm24.62.13s-.07.04-.07.05c.01.04.04.07.07.11.02-.02.07-.04.07-.05-.01-.04-.04-.07-.07-.11Zm.39.02s-.05.04-.07.06c.05.02.09.04.14.05.02,0,.05-.03.07-.05-.05-.02-.09-.04-.14-.06Zm-28.13,1.34s-.05-.07-.07-.1c-.02.02-.07.04-.07.05.01.04.04.07.07.11.02-.02.05-.04.07-.06Zm36.82.19s.05-.04.07-.06c-.05-.02-.09-.04-.14-.05-.02,0-.05.03-.07.05.05.02.09.04.14.06Zm.99.2s-.05.04-.07.06c.05.02.09.04.14.05.02,0,.05-.03.07-.05-.05-.02-.09-.04-.14-.06Zm-18.01.24s-.05-.07-.07-.1c-.02.02-.07.04-.07.05.01.04.04.07.07.11.02-.02.05-.04.07-.06Zm14.7-.08s-.09.04-.14.06c.02.02.05.05.07.05.05,0,.09-.03.14-.05-.02-.02-.05-.04-.07-.06Zm-5.01.19s-.05-.04-.07-.06c-.02.04-.05.07-.07.11,0,.01.04.03.07.05.03-.03.05-.07.07-.1Zm.77.42s-.07.04-.07.05c.01.04.04.07.07.11.02-.02.07-.04.07-.05-.01-.04-.04-.07-.07-.11Zm-32.79,1.21s-.05-.07-.07-.1c-.02.02-.07.04-.07.05.01.04.04.07.07.11.02-.02.05-.04.07-.06Zm22.23-.08s-.05.04-.07.06c.05.02.09.04.14.05.02,0,.05-.03.07-.05-.05-.02-.09-.04-.14-.06Zm16.12.24s-.05-.07-.07-.1c-.02.02-.07.04-.07.05.01.04.04.07.07.11.02-.02.05-.04.07-.06Zm-37.82.08s-.05.04-.07.06c.05.02.09.04.14.05.02,0,.05-.03.07-.05-.05-.02-.09-.04-.14-.06Zm21.02.51s.05.07.07.1c.02-.02.07-.04.07-.05-.01-.04-.04-.07-.07-.11-.02.02-.05.04-.07.06Zm1.69.16s.05.07.07.1c.02-.02.07-.04.07-.05-.01-.04-.04-.07-.07-.11-.02.02-.05.04-.07.06Zm14.96,0s.05.07.07.1c.02-.02.07-.04.07-.05-.01-.04-.04-.07-.07-.11-.02.02-.05.04-.07.06Zm-1.43.39s.09-.04.14-.06c-.02-.02-.05-.05-.07-.05-.05,0-.09.03-.14.05.02.02.05.04.07.06Zm-41.82.08s-.05-.04-.07-.06c-.02.04-.05.07-.07.11,0,.01.04.03.07.05.03-.03.05-.07.07-.1Zm42.24-.03s-.05.04-.07.06c.05.02.09.04.14.05.02,0,.05-.03.07-.05-.05-.02-.09-.04-.14-.06Zm-5.76.53s-.05-.05-.07-.05c-.05,0-.09.03-.14.05.02.02.05.05.07.05.05,0,.09-.03.14-.05Zm4.5.37s.09-.04.14-.06c-.02-.02-.05-.05-.07-.05-.05,0-.09.03-.14.05.02.02.05.04.07.06Zm.48-.11s-.09.04-.14.06c.02.02.05.05.07.05.05,0,.09-.03.14-.05-.02-.02-.05-.04-.07-.06Zm-39.56.55s-.05-.07-.07-.1c-.02.02-.07.04-.07.05.01.04.04.07.07.11.02-.02.05-.04.07-.06Zm1.85.19s.05-.04.08-.06c-.05-.02-.09-.04-.14-.05-.02,0-.05.03-.07.05.05.02.09.04.14.06Z"/>
      <path class="cls-1" d="m3.74,8.55s-.08-.01-.1,0c-.38.2-.37.19-.66-.02-.07-.05-.1-.08-.01-.11.03-.01.06-.03.09-.03.16-.02.39.06.47-.09.06-.11.01-.26.01-.39.14,0,.28,0,.42,0,.21,0,.21,0,.1.16-.02.03-.06.1-.04.11.22.14.15.19-.1.2-.11,0-.19.06-.17.16Z"/>
      <path class="cls-1" d="m31.76,13.62s-.07.12-.1.12c-.17,0-.36.07-.49-.04-.1-.09-.22-.1-.36-.12-.05,0-.12-.17-.09-.19.14-.09.31-.17.48-.23.03-.01.11.02.14.04.13.09.26.18.37.28.04.03.04.09.05.14Z"/>
      <path class="cls-1" d="m2.06,8.63c-.17.18-.56-.03-.7.21-.05-.02-.13-.03-.14-.05-.02-.07,0-.15,0-.23-.01-.14.11-.15.25-.17.29-.04.42.12.59.24Z"/>
      <path class="cls-1" d="m50.72,5.55c-.1,0-.22.02-.3,0-.06-.03-.13-.14-.11-.18.07-.14.19-.27.41-.28.06,0,.12.03.17.05,0,0,.01.04,0,.05-.3.21-.07.21.15.22.03,0,.07.04.07.05-.02.04-.05.09-.09.1-.1.01-.2,0-.3,0Z"/>
      <path class="cls-1" d="m46.51,11.39c.26,0,.55.06.75-.15.02-.02.13,0,.2,0,.1,0,.1.08,0,.16-.1.07-.19.15-.29.22-.19.14-.26.13-.5-.04-.05-.04-.1-.07-.14-.11-.02-.02,0-.05,0-.08Z"/>
      <path class="cls-1" d="m32.72,14.4c-.08-.12-.12-.25-.24-.31-.09-.05-.26,0-.4-.01-.03,0-.07-.04-.07-.05.02-.04.05-.1.08-.1.24,0,.48,0,.72,0,.03,0,.09,0,.1,0,.05.06.14.15.11.18-.07.11-.19.2-.3.3Z"/>
      <path class="cls-1" d="m25.9,13.01c-.07.05-.11.07-.16.1-.1-.11-.26-.14-.43-.17-.05,0-.1-.14-.07-.2.02-.07.17-.11.19-.17.02-.07.06-.13.11-.07.14.16.24.34.36.51Z"/>
      <path class="cls-1" d="m31.97,13.12c.1,0,.27-.03.3,0,.16.18.52.11.65.31.02.04.04.07.07.11-.06.02-.12.05-.18.05-.06,0-.14-.02-.17-.05-.12-.13-.29-.1-.46-.1-.05-.06-.1-.12-.14-.19-.03-.04-.05-.09-.07-.13Z"/>
      <path class="cls-1" d="m36.6.57s-.08.08-.13.09c-.16.03-.35-.05-.48.08-.07.07-.15.09-.21,0-.03-.04,0-.1,0-.15,0-.07.35-.22.39-.17.1.09.23.09.36.11.03,0,.05.03.07.05Z"/>
      <path class="cls-1" d="m46.09,11.23c-.14,0-.28,0-.42,0-.21,0-.26-.15-.4-.22.04-.03.07-.09.11-.09.33-.03.61.04.71.31Z"/>
      <path class="cls-1" d="m30.51,13.04c-.11.08-.2.15-.3.22-.02,0-.06,0-.07-.01-.09-.1-.29-.14-.27-.29,0-.04.03-.11.07-.12.18-.08.3.01.42.11.04.04.1.07.15.1Z"/>
      <path class="cls-1" d="m3.53,7.92c-.23,0-.46.03-.44-.24,0-.07-.22-.11-.19-.23.23,0,.46-.03.44.24,0,.07.22.11.19.23Z"/>
      <path class="cls-1" d="m42.4,1.77c-.26.04-.35-.13-.51-.22.04-.03.07-.08.12-.09.26-.04.34.14.49.24.02.01.02.06,0,.07-.02.01-.07,0-.1,0Z"/>
      <path class="cls-1" d="m45.84,2.56s-.08-.06-.13-.11c.06-.02.12-.05.18-.05.14,0,.28,0,.41,0,.03,0,.08-.01.1,0,.04.03.06.07.08.1,0,.01-.04.05-.07.05-.17,0-.34,0-.56,0Z"/>
      <path class="cls-1" d="m40.24,12.81c-.06,0-.13-.01-.19-.03-.03,0-.07-.03-.07-.05,0-.02.04-.04.06-.05.12-.04.25-.05.35-.11.1-.06.15-.07.21.01.01.02,0,.05,0,.08.02.1-.06.14-.16.15-.07,0-.14,0-.2,0Z"/>
      <path class="cls-1" d="m43.57,1.22c-.1.07-.19.14-.29.2-.01,0-.13-.04-.13-.06,0-.07.01-.16.07-.2.05-.03.18-.01.27,0,.03,0,.05.03.08.06Z"/>
      <path class="cls-1" d="m1.97,7.46c.1.07.19.14.28.21,0,0-.06.08-.1.09-.09.01-.2,0-.29,0,0-.07-.01-.15,0-.22,0-.03.08-.06.12-.08Z"/>
      <path class="cls-1" d="m51.68,7.44c.09.07.19.14.27.22.01.01-.05.1-.08.09-.09,0-.22-.01-.26-.05-.05-.04-.02-.13,0-.2,0-.02.04-.04.08-.06Z"/>
      <path class="cls-1" d="m2.8,7.45c-.07,0-.14.01-.19,0-.05-.01-.07-.06-.11-.09.05-.02.1-.06.16-.06.06,0,.12.01.18.03.03,0,.05.03.06.05.04.07,0,.1-.1.07Z"/>
      <path class="cls-1" d="m1.85,7.83s.02.1,0,.15c-.02.03-.08.06-.12.08-.03-.04-.08-.08-.08-.12,0-.04.02-.09.04-.13.01-.02.04-.04.07-.05.1-.03.13,0,.1.07Z"/>
      <path class="cls-1" d="m.92,8.41c.09.02.12.15.04.25-.01.02-.04.04-.07.05-.1.03-.13,0-.1-.07.02-.07.03-.14.06-.2,0-.01.04-.02.07-.03Z"/>
      <path class="cls-1" d="m46.09,11.23c.1,0,.2-.02.28,0,.06.02.09.1.14.15-.1,0-.2.02-.28,0-.06-.02-.09-.1-.14-.15Z"/>
      <path class="cls-1" d="m12.17,11.86c.02.15-.12.17-.26.15-.11,0-.18-.06-.16-.15h.42Z"/>
      <path class="cls-1" d="m6.73,12.34c.05.02.11.04.16.07-.07.03-.14.08-.21.09-.06,0-.22.08-.19-.07,0-.03.09-.06.14-.08.02-.01.06,0,.1,0Z"/>
      <path class="cls-1" d="m35.31,13.86c-.06.08-.27.08-.35,0-.01-.01-.01-.04,0-.05.06-.08.27-.08.35,0,.01.01,0,.04,0,.05Z"/>
      <path class="cls-1" d="m39.55,13.95s-.06.08-.1.12c-.04-.04-.1-.08-.1-.12,0-.07.06-.13.1-.2.04.07.09.13.1.2Z"/>
      <path class="cls-1" d="m35.67.51s-.1-.08-.09-.09c.07-.09.13-.03.18.02.01.02.01.05,0,.07-.02.01-.06,0-.09,0Z"/>
      <path class="cls-1" d="m40.09.35s.05.07.07.11c0,.01-.04.03-.07.05-.02-.04-.05-.07-.07-.11,0-.01.04-.03.07-.05Z"/>
      <path class="cls-1" d="m39.74.61s-.05.04-.07.06c-.02-.04-.05-.07-.07-.11,0-.01.04-.03.07-.05.03.03.05.07.07.1Z"/>
      <path class="cls-1" d="m39.91.96s-.09-.04-.14-.06c.02-.02.05-.05.07-.05.05,0,.09.03.14.05-.02.02-.05.04-.07.06Z"/>
      <path class="cls-1" d="m40.64,1.19s.05-.04.07-.06c.02.04.05.07.07.11,0,.01-.04.03-.07.05-.03-.03-.05-.07-.07-.1Z"/>
      <path class="cls-1" d="m47.01,2.89s.09.04.14.06c-.02.02-.05.05-.07.05-.05,0-.09-.03-.14-.05.02-.02.05-.04.07-.06Z"/>
      <path class="cls-1" d="m47.53,3.76s-.05.04-.07.06c-.02-.04-.05-.07-.07-.11,0-.01.04-.03.07-.05.03.03.05.07.07.1Z"/>
      <path class="cls-1" d="m47.81,3.72s.05-.04.07-.06c.02.04.05.07.07.11,0,.01-.04.03-.07.05-.03-.03-.05-.07-.07-.1Z"/>
      <path class="cls-1" d="m50.33,3.72s.05-.04.07-.06c.02.04.05.07.07.11,0,.01-.04.03-.07.05-.03-.03-.05-.07-.07-.1Z"/>
      <path class="cls-1" d="m48.33,4.11s-.09-.04-.14-.06c.02-.02.05-.05.07-.05.05,0,.09.03.14.05-.02.02-.05.04-.07.06Z"/>
      <path class="cls-1" d="m51.46,4.13s.05.07.07.11c0,.01-.04.03-.07.05-.02-.04-.05-.07-.07-.11,0-.01.04-.03.07-.05Z"/>
      <path class="cls-1" d="m10.4,4.46s.07.04.06.05c-.02.03-.06.07-.1.09-.02.01-.07.01-.09,0-.02-.01-.02-.05,0-.07.03-.03.08-.05.12-.08Z"/>
      <path class="cls-1" d="m50.48,5.81s-.05.04-.07.06c-.02-.04-.05-.07-.07-.11,0-.01.04-.03.07-.05.03.03.05.07.07.1Z"/>
      <path class="cls-1" d="m4.7,8.08s-.1-.08-.09-.09c.07-.09.13-.03.18.02.01.02.01.05,0,.07-.02.01-.06,0-.09,0Z"/>
      <path class="cls-1" d="m3.94,8.64s-.06.05-.07.05c-.05-.02-.09-.04-.12-.07-.02-.01-.01-.05,0-.07s.07-.01.09,0c.04.02.07.06.1.09Z"/>
      <path class="cls-1" d="m50.65,9.16s-.09-.04-.14-.06c.02-.02.05-.05.07-.05.05,0,.09.03.14.05-.02.02-.05.04-.07.06Z"/>
      <path class="cls-1" d="m45.7,9.6s.05-.07.07-.1c.02.02.07.04.07.05-.01.04-.04.07-.07.11-.02-.02-.05-.04-.07-.06Z"/>
      <path class="cls-1" d="m45.43,10.66s-.05.07-.07.1c-.02-.02-.07-.04-.07-.05.01-.04.04-.07.07-.11.02.02.05.04.07.06Z"/>
      <path class="cls-1" d="m45.07,11.29s.05-.04.07-.06c.02.04.05.07.07.11,0,.01-.04.03-.07.05-.03-.03-.05-.07-.07-.1Z"/>
      <path class="cls-1" d="m25.02,12.89s-.09.04-.14.05c-.02,0-.05-.03-.07-.05.05-.02.09-.04.14-.05.02,0,.05.03.07.05Z"/>
      <path class="cls-1" d="m29.37,13.1s-.09-.04-.14-.06c.02-.02.05-.05.07-.05.05,0,.09.03.14.05-.02.02-.05.04-.07.06Z"/>
      <path class="cls-1" d="m31.88,13.12s-.1-.08-.09-.09c.07-.09.13-.03.18.02.01.02.01.05,0,.07-.02.01-.06,0-.09,0Z"/>
      <path class="cls-1" d="m26.74,13.18s.05-.04.07-.06c.02.04.05.07.07.11,0,.01-.04.03-.07.05-.03-.03-.05-.07-.07-.1Z"/>
      <path class="cls-1" d="m38.93,13.36s-.09.04-.14.05c-.02,0-.05-.03-.07-.05.05-.02.09-.04.14-.05.02,0,.05.03.07.05Z"/>
      <path class="cls-1" d="m32.18,13.51s-.1.08-.12.07c-.13-.06-.04-.1.03-.14.02-.01.07-.01.09,0,.02.01,0,.04,0,.07Z"/>
      <path class="cls-1" d="m35.74,14.13s-.05.07-.07.1c-.02-.02-.07-.04-.07-.05.01-.04.04-.07.07-.11.02.02.05.04.07.06Z"/>
      <path class="cls-1" d="m32.71,14.7s.05.07.07.11c0,.01-.04.03-.07.05-.02-.04-.05-.07-.07-.11,0-.01.04-.03.07-.05Z"/>
    </g>
  </g>
</svg>