<?xml version="1.0" encoding="UTF-8"?>
<svg id="Layer_2" data-name="Layer 2" xmlns="http://www.w3.org/2000/svg" xmlns:xlink="http://www.w3.org/1999/xlink" viewBox="0 0 318 10.82">
  <defs>
    <style>
      .cls-1 {
        stroke: url(#linear-gradient-2);
      }

      .cls-1, .cls-2 {
        fill: none;
        stroke-miterlimit: 10;
      }

      .cls-2 {
        stroke: url(#linear-gradient);
      }

      .cls-3 {
        fill: #999;
      }
    </style>
    <linearGradient id="linear-gradient" x1="177" y1="5.07" x2="318" y2="5.07" gradientUnits="userSpaceOnUse">
      <stop offset="0" stop-color="#000" stop-opacity=".3"/>
      <stop offset="1" stop-color="#fff" stop-opacity="0"/>
    </linearGradient>
    <linearGradient id="linear-gradient-2" x1="22" y1="-38.43" x2="163" y2="-38.43" gradientTransform="translate(163 -32.86) rotate(-180)" xlink:href="#linear-gradient"/>
  </defs>
  <g id="Layer_1-2" data-name="Layer 1">
    <line class="cls-2" x1="318" y1="5.07" x2="177" y2="5.07"/>
    <line class="cls-1" y1="5.57" x2="141" y2="5.57"/>
    <g>
      <path class="cls-3" d="m161.02,10.82l-2.38-1.62c1.39-1.89,2.11-3.94,2.16-6.14V0h4.12v2.6c0,1.53-.36,3.05-1.09,4.54-.73,1.49-1.66,2.72-2.81,3.68Z"/>
      <path class="cls-3" d="m154.14,10.82l-2.38-1.62c1.39-1.89,2.11-3.94,2.16-6.14V0h4.12v2.6c0,1.53-.36,3.05-1.09,4.54-.73,1.49-1.66,2.72-2.81,3.68Z"/>
    </g>
  </g>
</svg>