<?xml version="1.0" encoding="UTF-8"?>
<svg id="Layer_2" data-name="Layer 2" xmlns="http://www.w3.org/2000/svg" viewBox="0 0 24.45 24.45">
  <defs>
    <style>
      .cls-1 {
        fill: #fff;
      }

      .cls-2 {
        fill: #22b573;
      }
    </style>
  </defs>
  <g id="Layer_1-2" data-name="Layer 1">
    <g>
      <rect class="cls-2" width="24.45" height="24.45" rx="5.72" ry="5.72"/>
      <path class="cls-1" d="m7.47,19.02h9.51c.75,0,1.36-.61,1.36-1.36v-7.47c0-.38-.3-.68-.68-.68h-2.04v-.55c0-1.63-1.09-3.13-2.69-3.46-2.18-.45-4.11,1.22-4.11,3.32v.68h-2.04c-.38,0-.68.3-.68.68v7.47c0,.75.61,1.36,1.36,1.36Zm2.72-10.19c0-1.34,1.3-2.38,2.7-1.93.84.27,1.38,1.11,1.38,2v.61h-4.07v-.68Zm-2.72,2.04h1.36v1.36h1.36v-1.36h4.07v1.36h1.36v-1.36h1.36v6.79s-9.51,0-9.51,0v-6.79Z"/>
    </g>
  </g>
</svg>