<?xml version="1.0" encoding="utf-8"?>
<!-- Generator: Adobe Illustrator 27.1.0, SVG Export Plug-In . SVG Version: 6.00 Build 0)  -->
<svg version="1.1" id="Layer_1" xmlns="http://www.w3.org/2000/svg" xmlns:xlink="http://www.w3.org/1999/xlink" x="0px" y="0px"
	 viewBox="0 0 24 24" style="enable-background:new 0 0 24 24;" xml:space="preserve">
<style type="text/css">
	.st0{fill:#28A745;}
</style>
<path class="st0" d="M20,8h-5.6l1.1-3.4c0.2-0.6,0.1-1.3-0.3-1.8S14.3,2,13.6,2H12c-0.3,0-0.6,0.1-0.8,0.4L6.5,8H4c-1.1,0-2,0.9-2,2
	v9c0,1.1,0.9,2,2,2h13.3c0.8,0,1.6-0.5,1.9-1.3l2.8-7.4c0-0.1,0.1-0.2,0.1-0.4v-2C22,8.9,21.1,8,20,8z M4,10h2v9H4V10z M20,11.8
	L17.3,19H8V9.4L12.5,4h1.1l-1.6,4.7c-0.2,0.5,0.1,1.1,0.6,1.3c0.1,0,0.2,0.1,0.3,0.1h7V11.8z"/>
</svg>
