<?xml version="1.0" encoding="utf-8"?>
<!-- Generator: Adobe Illustrator 27.1.0, SVG Export Plug-In . SVG Version: 6.00 Build 0)  -->
<svg version="1.1" id="Layer_1" xmlns="http://www.w3.org/2000/svg" xmlns:xlink="http://www.w3.org/1999/xlink" x="0px" y="0px"
	 viewBox="0 0 24 24" style="enable-background:new 0 0 24 24;" xml:space="preserve">
<style type="text/css">
	.st0{fill:#AAAAAA;}
</style>
<path class="st0" d="M16,2H8C4.7,2,2,4.7,2,8v13c0,0.6,0.4,1,1,1h13c3.3,0,6-2.7,6-6V8C22,4.7,19.3,2,16,2z M20,16c0,2.2-1.8,4-4,4
	H4V8c0-2.2,1.8-4,4-4h8c2.2,0,4,1.8,4,4V16z"/>
<path class="st0" d="M7,9h10v2H7V9z M7,13h7v2H7V13z"/>
</svg>
