<?xml version="1.0" encoding="utf-8"?>
<!-- Generator: Adobe Illustrator 27.1.0, SVG Export Plug-In . SVG Version: 6.00 Build 0)  -->
<svg version="1.1" id="Layer_1" xmlns="http://www.w3.org/2000/svg" xmlns:xlink="http://www.w3.org/1999/xlink" x="0px" y="0px"
	 viewBox="0 0 24 24" style="enable-background:new 0 0 24 24;" xml:space="preserve">
<style type="text/css">
	.st0{fill:#11BED3;}
	.st1{fill:#11BED3;stroke:#11BED3;stroke-linejoin:round;stroke-miterlimit:10;}
</style>
<path class="st0" d="M16,2H8C4.7,2,2,4.7,2,8v13c0,0.6,0.4,1,1,1h13c3.3,0,6-2.7,6-6V8C22,4.7,19.3,2,16,2z M20,16c0,2.2-1.8,4-4,4
	H4V8c0-2.2,1.8-4,4-4h8c2.2,0,4,1.8,4,4V16z"/>
<path class="st1" d="M10.8,14c0-0.1-0.1-0.3-0.1-0.4c0-0.2,0-0.4,0-0.5c0-0.3,0.1-0.5,0.2-0.8c0.1-0.2,0.3-0.4,0.4-0.6
	c0.2-0.2,0.4-0.4,0.5-0.6c0.2-0.2,0.4-0.4,0.5-0.6s0.3-0.4,0.4-0.6S13,9.5,13,9.2c0-0.2,0-0.4-0.1-0.6c-0.1-0.2-0.2-0.3-0.3-0.4
	S12.2,8.1,12,8c-0.2-0.1-0.4-0.1-0.6-0.1c-0.7,0-1.3,0.2-1.8,0.7C9.6,8.7,9.5,8.7,9.5,8.8v0c0-0.9,0.6-1.6,1.5-1.7
	C11.1,7,11.4,7,11.6,7c0.3,0,0.7,0,0.9,0.1c0.3,0.1,0.6,0.2,0.8,0.4c0.2,0.2,0.4,0.4,0.5,0.7C14,8.4,14,8.7,14,9.1
	c0,0.3-0.1,0.6-0.2,0.9c-0.1,0.3-0.3,0.5-0.4,0.7c-0.2,0.2-0.4,0.4-0.6,0.6c-0.2,0.2-0.4,0.4-0.6,0.6c-0.2,0.2-0.3,0.4-0.4,0.6
	c-0.1,0.2-0.2,0.4-0.2,0.7c0,0.2,0,0.4,0.1,0.6c0,0.2,0.1,0.3,0.1,0.4H10.8z M11.4,17.8c-0.2,0-0.4-0.1-0.5-0.2
	c-0.1-0.1-0.2-0.3-0.2-0.5c0-0.2,0.1-0.4,0.2-0.5c0.1-0.1,0.3-0.2,0.5-0.2c0.2,0,0.4,0.1,0.5,0.2c0.1,0.1,0.2,0.3,0.2,0.5
	c0,0.2-0.1,0.4-0.2,0.5C11.8,17.7,11.6,17.8,11.4,17.8z"/>
</svg>
