<?xml version="1.0" encoding="utf-8"?>
<!-- Generator: Adobe Illustrator 27.1.0, SVG Export Plug-In . SVG Version: 6.00 Build 0)  -->
<svg version="1.1" id="Layer_1" xmlns="http://www.w3.org/2000/svg" xmlns:xlink="http://www.w3.org/1999/xlink" x="0px" y="0px"
	 viewBox="0 0 24 24" style="enable-background:new 0 0 24 24;" xml:space="preserve">
<style type="text/css">
	.st0{fill:#7F7F7F;}
</style>
<path class="st0" d="M19.1,3c-0.4-0.6-1-1-1.7-1H6.6C5.9,2,5.2,2.4,4.9,3L2.1,7.5C2,7.6,2,7.8,2,8c0,1,0.4,1.9,1,2.6V19
	c0,1.1,0.9,2,2,2h14c1.1,0,2-0.9,2-2v-8.4C21.6,9.9,22,9,22,8c0-0.2,0-0.4-0.1-0.5C21.9,7.5,19.1,3,19.1,3z M20,8.3
	c-0.1,1-1,1.7-2,1.7c-1.1,0-2-0.9-2-2c0-0.1,0-0.1,0-0.2l0,0L15.2,4h2.2C17.4,4,20,8.3,20,8.3z M10.8,4h2.4L14,8.1
	c0,1.1-0.9,1.9-2,1.9s-2-0.9-2-1.9L10.8,4z M6.6,4h2.2L8,7.8l0,0C8,7.9,8,7.9,8,8c0,1.1-0.9,2-2,2c-1,0-1.9-0.8-2-1.7L6.6,4z M10,19
	v-3h4v3H10z M16,19v-3c0-1.1-0.9-2-2-2h-4c-1.1,0-2,0.9-2,2v3H5v-7.1C5.3,11.9,5.7,12,6,12c1.1,0,2.2-0.5,3-1.4
	c0.7,0.8,1.8,1.4,3,1.4s2.3-0.5,3-1.4c0.8,0.9,1.9,1.4,3,1.4c0.3,0,0.7-0.1,1-0.1V19H16z"/>
</svg>
