<?xml version="1.0" encoding="UTF-8"?>
<svg id="Layer_2" data-name="Layer 2" xmlns="http://www.w3.org/2000/svg" viewBox="0 0 1598.3 945.65">
  <defs>
    <style>
      .cls-1 {
        fill: #e6e6e6;
        opacity: .2;
      }
    </style>
  </defs>
  <g id="Layer_1-2" data-name="Layer 1">
    <path class="cls-1" d="m.28,945.17c136.22-130.95,443.16-460.11,578.56-579.44,99.77-87.94,199.64-175.78,299.6-263.53,32.81-28.8,65.44-57.79,98.47-86.36,42.43-36.67,109.5-5.14,103.3,48.4-.02.2-.06.4-.11.59l-69.76,260.12c-2.72,12.57,1.11,23.84,8.55,32,11.56,12.68,31.04,16.84,47.25,9.27,29.13-13.59,55.36-44.62,79.58-65.19l238.88-202.78c.08-.07.16-.14.25-.2,38.74-29.19,120-15.89,103.97,61.19-.04.19-.09.38-.16.56l-163.82,448c-7.73,20.91-5.33,39.11,3.93,49.07,21.47,23.06,60.75-7.37,79.54-20.04,25.48-17.18,51.89-32.94,78.19-48.96,0,0,87.94-53.56,87.94-53.56,30.95-19.08,28.34,1.33,11.56,14.48,0,0-154.54,135.42-154.54,135.42-41.28,36.18-80.51,74.49-123.52,108.89-33.85,27.08-79.95,57.1-120.9,22.91-44.02-36.75-10.79-107.37.18-153.02,5.32-22.14,10.63-44.27,15.95-66.41,6.18-25.73,26.07-69.21-7.22-84.67-26.45-12.28-55.19,14.86-71.93,31.36-46.31,45.66-93.32,90.67-140.61,135.42-23.64,22.38-47.36,44.68-71.09,66.98-21.16,19.88-41.94,45.36-66.64,61.35-.13.09-.26.18-.37.28-52.11,44.82-129.67,46.19-119.53-19.32,0,0,18.06-106,28.54-167.55,2.67-15.67,7.46-31.95,7.68-47.8.39-28.42-23.42-53.7-55.23-46.87-17.22,3.7-31.77,14.39-45.68,24.78C425.45,725.11-12.66,957.61.28,945.17Z"/>
  </g>
</svg>