<?xml version="1.0" encoding="utf-8"?>
<!-- Generator: Adobe Illustrator 27.1.0, SVG Export Plug-In . SVG Version: 6.00 Build 0)  -->
<svg version="1.1" id="Layer_1" xmlns="http://www.w3.org/2000/svg" xmlns:xlink="http://www.w3.org/1999/xlink" x="0px" y="0px"
	 viewBox="0 0 154 96.6" style="enable-background:new 0 0 154 96.6;" xml:space="preserve">
<style type="text/css">
	.st0{fill:#002A3A;}
</style>
<path class="st0" d="M9.5,87.2c-0.3,0.1-0.5,0.3-0.8,0.4c0.7-1,1.7-1.8,2.7-2.6c7.9-6.1,16-12,24-17.9c7.9-5.7,15.8-11.4,23.7-17.1
	c7.7-5.5,15.5-11.1,23.2-16.6c5.7-4.1,11.4-8.1,17.2-12.2c1.9-1.3,3.7-2.7,5.6-4c2.4-1.7,5.7,0.5,5,3.4l-5.4,13.7
	c-0.2,0.7-0.1,1.3,0.2,1.8c0.5,0.8,1.5,1.1,2.4,0.8c1.6-0.5,3.1-2,4.5-3l13.6-9.3c2.2-1.3,6.3,0,4.9,4.1L118.9,52
	c-0.5,1.1-0.5,2.1-0.1,2.7c0.9,1.4,3.2,0,4.2-0.5c1.4-0.7,2.9-1.4,4.3-2.1l4.9-2.3c1.7-0.8,1.4,0.3,0.5,0.9l-8.8,6.2
	c-2.4,1.7-4.6,3.5-7.1,5c-1.9,1.2-4.5,2.5-6.4,0.4c-2-2.3,0.2-5.9,1.1-8.3c0.4-1.2,0.8-2.3,1.3-3.5c0.5-1.4,1.8-3.6,0.2-4.7
	c-1.3-0.9-2.9,0.4-3.9,1.2c-2.7,2.1-5.4,4.3-8.1,6.3c-1.4,1-2.7,2.1-4.1,3.1c-1.2,0.9-2.5,2.2-3.8,2.9c-3,2.1-7,1.6-6-1.9
	c0,0,1.6-5.6,2.6-8.9c0.2-0.8,0.6-1.7,0.7-2.5c0.2-1.5-0.8-3.1-2.5-3c-0.9,0.1-1.7,0.6-2.5,1C72,51.9,58.8,59.8,45.6,67.6
	C33.7,74.6,21.8,81.3,9.5,87.2z"/>
</svg>
