<?xml version="1.0" encoding="utf-8"?>
<!-- Generator: Adobe Illustrator 26.0.1, SVG Export Plug-In . SVG Version: 6.00 Build 0)  -->
<svg version="1.1" id="Layer_1" xmlns="http://www.w3.org/2000/svg" xmlns:xlink="http://www.w3.org/1999/xlink" x="0px" y="0px"
	 viewBox="0 0 600 741" style="enable-background:new 0 0 600 741;" xml:space="preserve">
<style type="text/css">
	.st0{opacity:0.7;fill:url(#SVGID_1_);enable-background:new    ;}
	.st1{opacity:0.2;}
	.st2{fill:#14334C;}
	.st3{fill:#FBD460;}
	.st4{fill:#FFFFFF;}
	.st5{fill:url(#SVGID_00000149348705280532804480000001081928391951155594_);}
	.st6{fill:#2F3035;}
	.st7{fill:none;stroke:#FFFFFF;stroke-width:0.9689;stroke-linecap:round;stroke-miterlimit:10;}
	.st8{fill:#FFCFC4;}
	.st9{fill:none;stroke:#2F3035;stroke-width:0.9689;stroke-linecap:round;stroke-miterlimit:10;}
	.st10{fill:#4A5061;}
	.st11{fill:#5C54A3;}
</style>
<g>
	
		<linearGradient id="SVGID_1_" gradientUnits="userSpaceOnUse" x1="645.1603" y1="174.1833" x2="252.9901" y2="739.9706" gradientTransform="matrix(1 0 0 1 0 -246)">
		<stop  offset="0.5568" style="stop-color:#F5BB15"/>
		<stop  offset="1" style="stop-color:#FFFFFF;stop-opacity:0"/>
	</linearGradient>
	<path class="st0" d="M439.4,700l-251,71.3c-26.6,7.6-53.8-11.5-54.9-39.1c0-0.6,0-1.2,0-1.8v-558c0-23.5,16.6-42.8,37.8-44.7
		c2.5-0.2,4.9-0.6,7.3-1.3l251-71.3c26.6-7.6,53.8,11.5,54.9,39.1c0,0.6,0,1.2,0,1.8v558c0,23.5-16.6,42.8-37.8,44.7
		C444.3,699,441.8,699.3,439.4,700z"/>
	<g class="st1">
		
			<image style="overflow:visible;enable-background:new    ;" width="501" height="502" xlink:href="B1A11E72.png"  transform="matrix(0.999 0 0 0.999 84.7754 124.9398)">
		</image>
	</g>
	<g>
		<path class="st2" d="M87.1,403.1c-0.3,0.5-0.5,1-0.8,1.6c-0.2,0.6-0.4,1.1-0.6,1.7s-0.3,1.2-0.4,1.8c-0.1,0.6-0.1,1.2-0.1,1.8
			c0,0.8,0.3,1.6,0.7,2.4c0.4,0.7,0.9,1.4,1.6,2c0.6,0.6,1.3,1,2.1,1.3s1.6,0.5,2.4,0.5c0.6,0,1.2-0.1,1.8-0.2
			c0.6-0.1,1.3-0.3,1.9-0.5s1.2-0.6,1.8-0.9c0.6-0.4,1.1-0.8,1.5-1.4s0.8-1.1,1.1-1.8c0.3-0.7,0.4-1.5,0.4-2.3c0-1.1,0-2.4-0.1-3.8
			s-0.2-3.1-0.3-4.9c-0.1-1.8-0.3-3.7-0.4-5.8c-0.2-2.1-0.3-4.2-0.5-6.4c-0.1-0.7-0.1-1.5-0.2-2.4c-0.1-0.8-0.1-1.7-0.2-2.5
			c-0.1-0.9-0.1-1.7-0.2-2.6s-0.1-1.7-0.2-2.5l8.2-1.9l0.2,4.4l0,0c0.1,1.5,0.1,3,0.2,4.5s0.1,2.9,0.2,4.4c0.1,1.7,0.1,3.5,0.2,5.4
			s0.1,3.7,0.2,5.4c0.1,1.8,0.1,3.4,0.1,4.9s0,2.8,0,3.9c0,1.9-0.2,3.6-0.7,5.1s-1.1,2.8-1.9,3.9s-1.7,2.1-2.7,2.9s-2.1,1.4-3.3,1.9
			c-1.2,0.5-2.4,0.8-3.6,1.1c-1.2,0.2-2.4,0.3-3.5,0.3c-1,0-2-0.1-3.1-0.3s-2.1-0.6-3.2-1.1c-1-0.5-2-1.1-3-1.8
			c-0.9-0.7-1.8-1.6-2.5-2.6s-1.3-2.2-1.7-3.5s-0.6-2.8-0.6-4.4c0-1.7,0.2-3.2,0.4-4.5c0.2-1.3,0.5-2.4,0.8-3.3
			c0.1-0.4,0.3-0.9,0.5-1.3s0.4-0.9,0.7-1.4L87.1,403.1z"/>
		<path class="st2" d="M120.3,410.8c-1.9,0-3.4-0.2-4.7-0.7s-2.3-1.2-3.1-2.1c-0.8-0.9-1.4-1.9-1.8-3.1s-0.6-2.5-0.6-3.9
			c0-1.8,0-3.7,0-5.5s0-3.7,0-5.6s-0.1-3.8-0.2-5.7c-0.1-1.9-0.3-3.8-0.6-5.8l7.7-2.3c0.4,1.8,0.6,3.7,0.7,5.6
			c0.1,1.9,0.2,3.9,0.2,5.8c0,2,0,3.9,0,5.8s-0.1,3.8-0.1,5.5c0,0.6,0,1.2,0,1.7s0.1,0.9,0.2,1.2s0.4,0.6,0.7,0.7
			c0.3,0.2,0.8,0.2,1.5,0.2h0.6v8.1L120.3,410.8L120.3,410.8z"/>
		<path class="st2" d="M135.3,402.7v8.1h-0.4c-1.3,0-2.4-0.2-3.5-0.6c-1-0.4-1.8-1-2.3-1.8c-0.8,0.9-1.9,1.5-3.3,1.9
			c-1.4,0.4-3.1,0.6-4.9,0.6h-0.8v-8.1h0.8c0.9,0,1.6,0,2.2-0.1c0.6,0,1.1-0.1,1.5-0.3c0.4-0.2,0.7-0.4,0.9-0.7
			c0.2-0.3,0.3-0.7,0.3-1.3c0-0.5-0.1-1.2-0.2-2s-0.3-1.8-0.6-2.9l7.3-1.8c0.1,0.5,0.2,1.1,0.4,1.8c0.1,0.7,0.2,1.5,0.3,2.2
			c0.1,0.8,0.1,1.5,0.1,2.2s0,1.3-0.1,1.8c0.1,0.3,0.3,0.5,0.4,0.6c0.2,0.1,0.3,0.2,0.5,0.3c0.2,0.1,0.3,0.1,0.5,0.1s0.3,0,0.5,0
			L135.3,402.7L135.3,402.7z M127.3,421.2l-4.5-4.5l4.5-4.5l4.5,4.5L127.3,421.2z"/>
		<path class="st2" d="M152.7,402.7v8.1h-0.4c-0.6,0-1.3-0.1-1.9-0.2s-1.3-0.3-1.9-0.5c-0.6-0.2-1.1-0.5-1.6-0.8s-0.8-0.7-1.1-1
			c-0.4,0.4-0.9,0.8-1.5,1.1s-1.3,0.6-2.1,0.8s-1.6,0.3-2.5,0.4s-1.8,0.1-2.7,0.1h-2.4v-8.1h2.4c0.9,0,1.6,0,2.3-0.1
			c0.6,0,1.2-0.1,1.6-0.3c0.4-0.2,0.8-0.4,1-0.7c0.2-0.3,0.4-0.7,0.4-1.3c0.1-0.5,0-1.2-0.1-2s-0.3-1.8-0.5-2.9l7.3-1.8
			c0.1,0.5,0.2,1.1,0.4,1.8c0.1,0.7,0.2,1.5,0.3,2.2c0.1,0.8,0.1,1.5,0.1,2.2s0,1.3-0.1,1.8c0.1,0.3,0.3,0.5,0.5,0.6
			s0.5,0.2,0.7,0.3c0.3,0.1,0.5,0.1,0.7,0.1s0.4,0,0.6,0h0.5V402.7z M142.6,416l-3.8,3.8l-4-3.9l3.9-3.9l3.9,3.9l3.8-3.8l4,3.9
			l-3.9,3.9L142.6,416z"/>
		<path class="st2" d="M151.9,402.7h1.2c2.1,0,3.2-1.2,3.1-3.7c0-0.1,0-0.4-0.1-1c0-0.5-0.1-1.2-0.2-2c-0.1-0.8-0.2-1.7-0.2-2.7
			c-0.1-1-0.2-2.1-0.3-3.2s-0.2-2.2-0.3-3.4s-0.2-2.2-0.3-3.3c-0.1-1-0.2-2-0.3-2.9s-0.2-1.7-0.2-2.3l7.9-2c0,0.4,0.1,1.2,0.2,2.3
			c0.1,1.1,0.2,2.6,0.3,4.5s0.2,4.2,0.4,6.9c0.1,2.7,0.3,5.9,0.4,9.5c0,0.1,0,0.2,0,0.3c0,0.1,0,0.2,0,0.3c0,1.6-0.2,3-0.7,4.3
			c-0.4,1.3-1.1,2.4-2,3.4c-0.9,0.9-2,1.7-3.3,2.2s-2.8,0.8-4.6,0.8h-1L151.9,402.7L151.9,402.7z"/>
		<path class="st2" d="M165.6,410.2c0.1-0.9,0.1-1.8,0.2-2.8c0.1-1,0.1-2,0.2-3c0-1,0.1-2,0.1-2.9s0-1.8,0-2.6
			c0-2.5-0.1-4.8-0.2-6.9c-0.1-2.1-0.3-4-0.4-5.7s-0.3-3.2-0.5-4.4c-0.2-1.3-0.3-2.3-0.4-3.2l7.9-2.6c0.3,2,0.6,3.9,0.7,5.9
			s0.3,3.7,0.4,5.4s0.2,3.3,0.2,4.7s0.1,2.6,0.1,3.6c0,0.9,0,1.9,0,3s0,2.2,0,3.4c0,1.2-0.1,2.4-0.1,3.6s-0.1,2.4-0.2,3.5
			L165.6,410.2z"/>
		<path class="st2" d="M174.5,417.3c1.7-0.4,3.2-0.8,4.7-1.2c1.4-0.5,2.7-1,3.9-1.6c1.1-0.6,2.1-1.2,2.9-1.8
			c0.8-0.6,1.4-1.3,1.9-1.9c-0.2,0-0.4,0-0.7,0s-0.5,0-0.7,0s-0.5,0-0.7,0s-0.4,0-0.5,0c-1.5-0.1-2.8-0.4-4-0.8s-2.2-1-3-1.8
			s-1.5-1.7-2-2.8c-0.5-1.1-0.7-2.4-0.7-3.8c0-0.9,0.1-1.8,0.3-2.7c0.2-0.9,0.5-1.9,1-2.8s0.9-1.7,1.5-2.5s1.2-1.5,1.9-2.1
			s1.4-1.1,2.2-1.4s1.6-0.5,2.4-0.5c1.1,0,2.2,0.2,3.2,0.7s1.9,1.2,2.7,2s1.5,1.8,2.2,2.9s1.2,2.3,1.6,3.5s0.8,2.4,1,3.7
			c0.2,1.2,0.3,2.4,0.3,3.6c0,1.8-0.2,3.5-0.7,5.1s-1.1,3-2,4.3s-1.9,2.5-3.1,3.6c-1.2,1.1-2.5,2-3.9,2.9c-1.4,0.8-3,1.6-4.6,2.2
			s-3.3,1.1-5,1.5L174.5,417.3z M184.6,397.1c-0.4,0-0.8,0.1-1.1,0.4s-0.6,0.6-0.9,1c-0.3,0.4-0.4,0.8-0.6,1.2
			c-0.1,0.4-0.2,0.9-0.2,1.2c0,0.3,0.1,0.5,0.4,0.7c0.2,0.2,0.6,0.4,1,0.5s0.8,0.2,1.3,0.3c0.5,0.1,1,0.1,1.5,0.2
			c0.5,0,1,0.1,1.5,0.1s0.9,0,1.3,0c-0.1-0.6-0.2-1.3-0.5-1.9c-0.2-0.7-0.5-1.3-0.9-1.8s-0.8-1-1.3-1.3
			C185.7,397.3,185.2,397.1,184.6,397.1z"/>
	</g>
	<circle class="st3" cx="175.5" cy="578.1" r="4"/>
	<g>
		<g>
			
				<image style="overflow:visible;opacity:7.000000e-02;enable-background:new    ;" width="145" height="145" xlink:href="B1A11E76.png"  transform="matrix(1 0 0 1 -0.4745 475.2423)">
			</image>
			<g>
				<path class="st3" d="M67.1,573L67.1,573c16.5,0,29.9-13.4,29.9-29.9l0,0c0-16.5-13.4-29.9-29.9-29.9l0,0
					c-16.5,0-29.9,13.4-29.9,29.9l0,0C37.2,559.6,50.6,573,67.1,573z"/>
			</g>
		</g>
		<g>
			<path class="st4" d="M54.2,557.2h1.4v-21.5h-1.4c-1.8,0-3.3,1.5-3.3,3.3V554C50.9,555.8,52.4,557.2,54.2,557.2z M80.2,535.8H68.9
				l1.8-5.5c0.3-1,0.2-2.2-0.4-3c-0.7-0.9-1.7-1.4-2.7-1.4h-0.4l-8.2,9v22.4h17.9l6.4-14.2l0.1-0.7V539
				C83.4,537.2,82,535.8,80.2,535.8z"/>
		</g>
	</g>
	
		<radialGradient id="SVGID_00000023276755105250062030000010479291917615331475_" cx="190.0361" cy="1164.6635" r="98.6532" gradientTransform="matrix(1.6418 0 0 1.3584 191.8261 -1258.4288)" gradientUnits="userSpaceOnUse">
		<stop  offset="5.540901e-07" style="stop-color:#FFFFFF"/>
		<stop  offset="1" style="stop-color:#FFFFFF;stop-opacity:0"/>
	</radialGradient>
	
		<rect x="500.5" y="134.2" style="fill:url(#SVGID_00000023276755105250062030000010479291917615331475_);" width="6.6" height="379"/>
	<g>
		<path class="st6" d="M305.9,525.6c0,0-7.1-5.1-8.8-7.6c-1.7-2.4-2.9-4.8-4.5-6.3c-1.6-1.5-8-2.2-12.8,1.2c-4.8,3.4-7.3,11-8.2,14
			c-0.9,3.1-1.1,7.3-3.9,10.1s-11.3,7.3-14.9,13.3c-3.6,6-6.2,16.4-6.6,23.8c-0.4,7.4,2.3,8.5,3.8,9.3s5,1.5,7.1,0
			c2.1-1.5,11.1-11.3,13.4-13.3s6.1-5.2,8.7-5.8c2.6-0.5,10.1-3.5,14.4-4.8s8.8-4.7,10.7-11.1C306.1,542,305.9,525.6,305.9,525.6z"
			/>
		<path class="st7" d="M267.7,537.1c-2.8,2.8-11.3,7.3-14.9,13.3c-3.6,6-6.2,16.4-6.6,23.8"/>
		<path class="st6" d="M234.5,475.2c0,0-5.1-2.6-7.1-5.6s-2.9-8.1-6.9-9.4c-4-1.4-10.7-2.9-18.4,3.1c-7.8,6-13.5,17.4-20.4,21.5
			c-6.9,4-13.6,8.2-18.7,17.2c-5,9-6.1,17.4-5,24.1c1.1,6.8,7.2,9.9,10,9.9s4,0.2,8.1-4.4c4-4.6,12.8-14.3,21.7-17.7
			c9-3.4,16-8,19.2-11.5C220.2,498.6,233.5,486.2,234.5,475.2z"/>
		<path class="st7" d="M202,463.2c-7.8,6-13.5,17.4-20.4,21.5"/>
		<path class="st7" d="M167.9,536c2.8,0,4,0.2,8.1-4.4c4-4.6,12.8-14.3,21.7-17.7c9-3.4,16-8,19.2-11.5"/>
		<path class="st8" d="M360.5,465.6l-0.4,26.9c0,0-14.5,1.7-21,7.2c-6.5,5.5-13.1,10.9-19.4,14.9c-6.3,4-19.2,10.6-23.6,13.2
			c-4.4,2.7-8.2,9.9-9.2,14.9c-1,5.1,0.4,13.2,5.6,12.8s12.9-4.8,21.3-8.6c8.4-3.9,38.5-10.9,56.7-15s23.5-5.5,26.5-14
			c3-8.5,15.2-52.3,15.2-52.3L360.5,465.6L360.5,465.6z"/>
		<line class="st9" x1="360.5" y1="465.6" x2="360.1" y2="505.3"/>
		<path class="st9" d="M313.8,546.8c8.4-3.9,38.5-10.9,56.7-15s23.5-5.5,26.5-14l6-19.8"/>
		<path class="st8" d="M341.8,458.9c0,0-21.6,41-25.3,46.7c-3.8,5.7-8.5,7.3-10.9,9.3c-2.4,2.1-13.3,2.3-21.7,0.7
			c-8.4-1.6-42.5-14.1-45.9-15.1c-10.8-3.1-22.4-3.2-23.5-3.4c-1-0.2-4.3-6.1-3.2-11.2c1-5.2,8.4-8.2,11.3-9.6
			c3-1.4,30.1-6,37.3-7.5c7.2-1.5,16,0.3,18.1,1.4s4.3,2.7,4.3,2.7l9.8-34.1C292.1,438.9,314.2,438.9,341.8,458.9z"/>
		<path class="st9" d="M243.1,472.1c7-1.3,13.8-2.5,16.9-3.2c7.2-1.5,16,0.3,18.1,1.4"/>
		<path class="st8" d="M257.5,193.6c-1.3-1-3.5-1.4-6.5-1.2c-3.1,0.2-7.1,1.4-9,1.5c-1.8,0.1-3.3-1.5-3.5-2.4
			c-0.1-0.7,0.9-4.4,1.3-7l0,0c0,0,3.3-7.9,3.8-9.3c0.5-1.4,1-4.5,1.4-6.1s1.3-4.4,1.7-5.5c0.4-1.1,1.2-3,0.3-3.2
			c-0.8-0.2-3.8-0.4-5.4,3.7c-1.6,4.1-1.9,6.1-2.5,7.7c-0.5,1.3-3,6.1-3.9,8.1c-0.4-0.1-0.8-0.3-1.3-0.4c0.6-3.3,1.5-8.3,1.7-9.3
			c0.3-1.5,0.3-4.9,0.4-6.6c0.1-1.7,0.6-4.8,0.8-6s0.7-3.3-0.2-3.4c-0.9-0.1-4,0.2-5,4.8s-0.9,6.6-1.3,8.4c-0.3,1.5-2,8.4-2.7,11
			c-0.3,0-0.6-0.1-0.9-0.1c-0.1-2.7-0.3-6.6-0.4-7.5c-0.1-1.4-1-4.5-1.3-6.2c-0.4-1.6-0.7-4.6-0.8-5.7c-0.2-1.2-0.2-3.2-1.1-3.1
			c-0.9,0.2-3.6,1.2-3.3,5.7c0.3,4.4,0.9,6.3,1,8c0.1,1.4-0.1,6.8-0.1,9c-0.6,0.1-1.2,0.2-1.7,0.3c-0.2-2.2-0.5-4.5-0.6-5.1
			c-0.2-1.3-1.2-4.2-1.6-5.7c-0.4-1.5-0.9-4.2-1.1-5.3c-0.2-1.1-0.4-3-1.2-2.8s-3.3,1.4-2.7,5.5s1.2,5.8,1.5,7.4
			c0.2,1.3,0.4,6.1,0.4,8.2c-0.4,1.3-2,7.1-2.4,11.4c-0.5,4.8,0.3,12.7,0,15s-12.7,30.5-15.7,41.5c-3.1,11-7.2,31.7-7.8,35.3
			c-0.6,3.6,0.8,5.2,2.8,6.3c2,1.1,6.1,4,14.2,4.7c8.1,0.7,28.4,1.5,28.4,1.5c-2.4-12.5-12.5-33.2-12.5-33.2c1.6-6.4,0-17,0.7-23.3
			c2-16.2,5.8-26.2,8.4-31.5c2.6-5.3,13.9-7.8,15.8-8.2c1.9-0.4,5.1-1.5,6.1-1.7c0.9-0.2,4.2-1.1,6-1.4
			C259.3,197.2,258.8,194.4,257.5,193.6z"/>
		<path class="st9" d="M211.1,207.4c-0.3,2.3-12.7,30.5-15.7,41.5c-3.1,11-7.2,31.7-7.8,35.3"/>
		<path class="st8" d="M409.1,341.9c0.8,5.5,0.8,13.7,0.8,13.7h-73.8v-26h70C406.2,329.5,408.5,335.7,409.1,341.9z"/>
		<path class="st6" d="M305.5,145.1c0,0,1.8-2.4,1.2-4.7c-0.6-2.2-2.2-3.6-4.9-3.9c-2.7-0.3-5.6-0.3-6.2-0.8c0.5,1.3,2,1.8,2,1.8
			c-2.4,0.5-5.3-1.5-9.7,0.4c-5.5,2.3-13.2,9.9-17.1,10.4c1.9,0.5,4,0.4,4,0.4c-3.7,2.2-10.7,9.7-11.8,16.8
			c-1.1,7.1-2.8,11.1-3.9,12.4c2.2-0.7,3.6-2.2,3.6-2.2c-1.2,3.7,0.2,9.9,0.8,12.4c0.5,2.5,0.2,3.6,0.2,3.6s1.6-1.3,1.7-3.5
			c1.5,6.1,5.5,11,9.5,14.1s4,5.3,4,5.3s1.2-0.8,1.2-2.2c3.2,4.1,6.5,6.1,8.9,6.2c2.4,0.2,3,0.6,3,1.6c0,0,1.3-0.5,0.8-2
			c0,0,2.4,1,4.3,0.8L305.5,145.1z"/>
		<path class="st8" d="M576.9,132.9c-0.3-0.2-1.9,0.3-3.8,0.5c-0.2,0-0.4,0-0.7,0.1l0,0c2.2-0.7,2.4-3.3,2.1-3.5
			c-0.3-0.2-1.9,0.4-3.7,0.7c-1.9,0.3-7.5,0.7-8.7,1.1c-0.4,0.2-2,0.8-4,1.4c1.5-0.8,5.2-2.7,6.8-3.6c1.9-1.1,1.6-3.4,1.3-3.6
			c-0.3-0.1-1.6,0.7-3.3,1.3c-1.5,0.5-5.9,1.7-7.4,2.4c1.2-1.1,0.9-2.8,0.6-2.9c-0.3-0.1-1.4,0.7-2.8,1.3c-1.4,0.6-5.8,2-6.7,2.6
			c-0.6,0.4-4.2,2.8-6.7,4.5c-3.5,1.4-12.2,4.6-14.9,5.3c-3.1,0.8-46.3,7.6-63.2,10.5c-17,2.9-23.4,9.3-29.1,11.6
			s-26.6,10.8-26.6,10.8v27.3c7.7-2.3,16.7-6.2,22.2-9c5.6-2.7,16.8-10,23.2-11.7c6.4-1.7,15.7-4.7,23.9-8
			c8.2-3.3,32.4-16.1,38.7-17.4c6.3-1.3,13.3,1.9,16.5,3c3.3,1.1,11.9,3.1,14.7,4.1s5,1,6.2,1.1c1.3,0.1,4.2,1,5.4,1.1
			s1.6-2.3,1.5-3.1c-0.2-0.8-0.8-2.2-2.3-3.7s-3.5-1.5-5.3-1.9s-5.2-0.5-5.6-2.1c-0.4-1.6,0.2-4.9,0.8-5.7c0.6-0.7,9.3-4.8,10.2-5.3
			s8.6-3.4,9.5-3.6c0.8-0.3,6.5-1.7,8.8-2.3C576.9,135.7,577.2,133.2,576.9,132.9z"/>
		<path class="st9" d="M461.9,151.2c-17,2.9-23.4,9.3-29.1,11.6s-26.6,10.8-26.6,10.8"/>
		<path class="st9" d="M451.6,180.2c6.4-1.7,15.7-4.7,23.9-8c8.2-3.3,32.4-16.1,38.7-17.4"/>
		<path class="st4" d="M301.8,141.9c5.1-0.1,10.3,4.5,11.5,6.8c1.3,2.3,1.4,3.4,3.5,5.5s6.2,4,7.3,9.4c1.1,5.5,1.9,12.4,1.9,13.9
			s-1.9,5.3-1.7,8.7c0.2,3.4,3.8,12.7,3.8,12.7l-30.8,15.3c0,0-8.3-16.1-9.3-18s-1.4-6.9-1.4-6.9s-4.4,1-8-0.6
			c-3.6-1.7-4.7-6.6-3.4-8.4c1.3-1.8,5.7-3.1,8.1-1.6s3.3,1,3.1,0.3c-0.2-0.6-3.2-9.5-3.8-10.1c-0.6-0.6-3.4-1.6-3.5-3.6
			c-0.1-2.1,2.3-7.8,2.3-8.4c0-0.6-0.9-3.2,0.3-5.6C282.9,148.9,286,142.2,301.8,141.9z"/>
		<path class="st9" d="M316.8,154.2c2.1,2.1,6.2,4,7.3,9.4c1.1,5.5,1.9,12.4,1.9,13.9"/>
		<path class="st10" d="M294.1,350.6c0.2,1,0.5,1.8,1,2.5c3.4,5.8,13.8,8.5,13.8,8.5s-6.6,9.8-7.3,15.6c-0.6,5.8-1.1,17-4.8,24.2
			c-3.7,7.3-7.9,16.6-9.7,23.7c-1.8,7.1-9.4,7.8-9.7,10.5c-0.3,2.7,0.6,12.1,5.2,15c4.5,2.9,26.8,5,39.4,10.2s17.3,9.2,18.1,8.7
			c0.8-0.5,13.7-22.1,13.7-22.1s-1.3,20.6,0,22.2s9,1.1,12.9,5.4c3.9,4.4,24.1,18.9,32,20s9.4,0,9.4,0s4.2-20.2,6.8-34.2
			c2.6-14,6.5-31.3,3.9-66.2s-7-39.6-7.3-41.5s-2.1-2.1-2.1-2.1s-15.8-0.1-36.4-1.8c-20.6-1.7-30.4-5.1-30.4-5.1"/>
		<path class="st11" d="M299.5,345.3c-1.2,0-2.4-0.2-3.5-0.8c-1.6-1-2.4-2.8-2.6-4.6c-0.3-3.3,0.5-7.2,0.8-10.5c0.3-4,0.5-8,0.2-12
			c-0.8-11.8-7.1-21.4-7.1-21.4s-13.6,0-26.1,0.6c-12.4,0.6-31.1,1.4-31.4,1.1c-0.3-0.2-1-3.6-3.3-12.7s-7.8-20.9-7.8-20.9
			s0.2-1.5,1.5-2.1s9.7-3.6,16.4-5.3c6.7-1.7,18.1-6.2,18.1-6.2s8.7-12.7,10.2-14.8s6.5-4.4,10.7-6.3c4.1-1.9,4-3.5,17.8-15.1
			s30.6-18.9,33.3-18.9c2.7,0,6.9,0.3,7.4,0c0.6-0.3,18.8-9.4,27.2-14c8.4-4.5,17.2-5,21.2-5.7s31.3-10.6,34.9-11.3s5.2,2.5,5.2,2.5
			l-4.6,1.9c-2.9,16.9-1.2,28.3-1.2,28.3l6.8-2.9c0,0-0.9,3.9-1.6,5.6c-0.7,1.7-1.8,1.6-5.8,3.6c-4,2.1-25.9,13.9-25.9,13.9
			s0.6,4.6,0.8,9.8c0.2,5.2,1.9,16.1,4.5,29.6c2.5,13.4,8.4,43.2,9.7,50.1c1.3,6.9,5.7,19,6.1,23.4s-2.4,7-2.4,7l-1.1-5.2
			c-0.4-1.8-6.2-2.5-7.4-2.6c-8.3-1-16,1.1-24.1,2.9c-18.7,4.1-37.5,7.6-56.5,10.3c-6.1,0.9-12.1,1.7-18.2,2.4
			C301.1,345.2,300.3,345.2,299.5,345.3z"/>
		<path class="st7" d="M414.8,460.9c2.6-14,6.5-31.3,3.9-66.2s-7-39.6-7.3-41.5"/>
		<path class="st7" d="M405.3,306.9c-1.3-6.9-7.1-36.7-9.7-50.1c-2.5-13.4-4.2-24.3-4.5-29.6"/>
		<path class="st9" d="M293.6,188.8c8.4,0.6,17.5-7.8,17.5-7.8"/>
		<path class="st7" d="M357.2,440c0,0,10.5-22.4,17.7-41.6"/>
		<path class="st7" d="M289.4,292c0,0,2.1-22.3-5.5-38.1"/>
		<path class="st9" d="M220.1,195.9c0,0,4.7-4,15.6-3.5"/>
		<path class="st9" d="M222.8,267.2c0,0-5.2,2.2-12.9,5.8"/>
		<path class="st7" d="M334.4,350.7c0,0,21.5,5,48.8,5.8"/>
		<g>
			<path class="st3" d="M451.1,66.2c0,21.6-17.5,39.1-39.1,39.1s-39.1-17.5-39.1-39.1s17.5-39.1,39.1-39.1S451.1,44.7,451.1,66.2z"
				/>
			<path class="st4" d="M416.3,37.3c3.2-2.2,5.6-3.8,6.1-4.2c2-1.4,3.6-2.2,4.8-2.8c-0.2-0.1-0.4-0.1-0.5-0.2
				c-1.1,0.6-2.6,1.4-4.5,2.6c-0.5,0.3-2.9,2-6.1,4.2c-6.5,4.5-16.3,11.2-18.2,12.5c-2.7,1.8-10.8,7.5-13.5,9.7
				c-1.3-3.2-2.3-6.2-2.6-8c-0.5-3-0.9-6.3-1.1-8.1c-0.1,0.2-0.3,0.3-0.4,0.5c0.2,1.9,0.6,4.9,1.1,7.6c0.3,1.9,1.3,4.9,2.7,8.2
				c-1.5,1.3-6,5.3-7.8,8.4c-1.1,2.4-1.5,6.5-1.3,11c0.1,0.2,0.2,0.5,0.3,0.7h0.2c-0.3-4.8,0.1-9.1,1.2-11.6c1.7-3,6-6.8,7.5-8.2
				c1.9,4.7,4.5,9.8,6.8,12.8c3,3.9,13,12.2,27.9,12.2c2.7,0,5.7-0.3,8.7-0.9l-0.1-0.4c-19.4,4.2-32.7-6.6-36.2-11.1
				c-2.3-3-4.9-8.1-6.8-12.8c2.6-2.1,10.8-8,13.5-9.8C400,48.5,409.9,41.7,416.3,37.3z"/>
			<path class="st11" d="M438.2,95.2c-6.9,6.3-16.1,10.1-26.2,10.1c-16.9,0-31.3-10.8-36.8-25.8c-0.3-4.7,0.1-9.2,1.2-11.7
				c3.7,17.5,13.1,31.2,33.3,33.8C422.8,103.2,432.7,98.8,438.2,95.2z M424,61.3c-20.8,9.8-32.1,9.7-32.8,9.7c-0.7,0-0.6,0.8,0,1.5
				s9.3,13,29.8,13c12.9,0,25.1-8,29.9-15.7c0.1-1.1,0.1-2.2,0.1-3.3c0-7.7-2.2-14.9-6.1-20.9C442.2,49,437,55.1,424,61.3z
				 M381.3,49.3c0,0-0.4-3.1-0.7-6.2c-2,2.7-3.6,5.6-4.9,8.8C377.4,50.5,379.3,49.5,381.3,49.3z M394.8,49.7c-0.1,0.9,0,2,0,2
				s11.6-7.6,18.7-12.7c5.7-4.1,11.2-7.7,13.2-8.9c-4.5-1.8-9.4-2.8-14.6-2.8c-4.2,0-8.3,0.7-12.1,1.9c-0.7,2.6-1.8,6.7-2.8,10.1
				C395.6,45,394.8,48.8,394.8,49.7z"/>
			<path class="st4" d="M412,105.5c0,0-0.7,0-2.1,0c-0.7,0-1.4,0-2.4-0.1c-0.9-0.1-1.9-0.2-3-0.4s-2.3-0.5-3.5-0.8
				c-1.3-0.3-2.5-0.8-3.9-1.3c-1.3-0.6-2.6-1.1-3.9-1.9c-1.3-0.7-2.6-1.5-3.8-2.4c-1.2-0.9-2.4-1.8-3.5-2.8s-2.1-2-3.1-3.1
				c-0.9-1.1-1.8-2.1-2.5-3.2c-0.7-1.1-1.4-2.1-2-3c-0.6-1-1-1.9-1.4-2.7s-0.7-1.5-0.9-2.2c-0.5-1.2-0.7-1.9-0.7-1.9h0.1
				c0,0,0.4,0.7,1,1.8c0.3,0.6,0.7,1.3,1.2,2c0.4,0.8,1,1.6,1.7,2.5c0.6,0.9,1.3,1.9,2.1,2.8c0.8,1,1.7,1.9,2.6,2.9c1,1,1.9,2,3,2.9
				c1,1,2.3,1.8,3.4,2.6c1.2,0.8,2.4,1.6,3.7,2.3c1.2,0.8,2.5,1.3,3.7,1.9c1.3,0.5,2.5,1,3.7,1.4c1.2,0.5,2.3,0.8,3.4,1.1
				s2,0.5,2.9,0.7s1.7,0.4,2.3,0.4c1.3,0.2,2,0.4,2,0.4L412,105.5z"/>
			<path class="st4" d="M436.1,35.6c0,0,0.8,0.7,2.1,1.8c0.3,0.3,0.7,0.6,1.1,1s0.8,0.8,1.2,1.3c0.8,0.9,1.8,1.9,2.7,3.2
				c0.9,1.2,1.9,2.5,2.7,4.1c0.4,0.8,0.9,1.5,1.3,2.3s0.7,1.7,1.1,2.6s0.7,1.8,1,2.7c0.3,0.9,0.6,1.9,0.9,2.9c0.3,2,0.9,4,0.9,6
				l0.2,3.1c-0.1,1-0.1,2-0.2,3c0,1-0.3,2-0.4,3s-0.3,1.9-0.6,2.8c-0.3,0.9-0.4,1.8-0.7,2.7c-0.3,0.9-0.6,1.7-0.9,2.5
				c-0.7,1.6-1.4,3.1-2.1,4.4c-0.8,1.3-1.4,2.5-2.2,3.5c-0.7,1-1.3,1.9-1.9,2.5c-1.2,1.3-1.8,2.1-1.8,2.1s0.5-0.9,1.5-2.4
				c0.5-0.7,1-1.7,1.6-2.8c0.6-1.1,1.1-2.3,1.8-3.6c0.6-1.3,1.2-2.9,1.7-4.4c0.2-0.8,0.4-1.6,0.7-2.5c0.3-0.8,0.4-1.7,0.6-2.6
				l0.3-1.3c0-0.4,0.1-0.9,0.2-1.3c0.1-0.9,0.3-1.7,0.3-2.8c0-1,0.1-2,0.1-3l-0.1-2.8c0-1.9-0.5-3.8-0.7-5.7
				c-0.2-0.9-0.5-1.8-0.7-2.7c-0.2-0.9-0.5-1.8-0.8-2.6c-0.3-0.9-0.6-1.7-0.9-2.5c-0.3-0.8-0.7-1.6-1.1-2.3
				c-0.7-1.6-1.6-2.9-2.4-4.1c-0.8-1.3-1.6-2.3-2.3-3.3c-0.4-0.5-0.7-0.9-1-1.4c-0.4-0.4-0.7-0.8-1-1.1
				C436.8,36.3,436.1,35.6,436.1,35.6z"/>
		</g>
		<path class="st3" d="M347.6,227.2c1.3-2.1,4.2-7.2,5.6-9.2c1-1.4,2-2.9,3-4.3c0.3-0.5,0.7-0.9,1-1.4c0.4-0.6,1.4-0.4,1.5,0.3l0,0
			l-0.1,3.5c0,0.2,0.1,0.3,0.2,0.4c0.2,0.1,0.4,0.1,0.6,0c0.3-0.3,0.6-0.7,0.8-1.1l2.4-3.3l0,0c0.4-0.5,1.5-0.6,1.5,0.5l0,0
			l-0.7,6.2c0,0.3,0.1,0.5,0.2,0.6c0.3,0.2,0.8-0.3,1-0.5c0.3-0.3,0.6-0.6,0.8-0.9l1-1c0.3-0.3,0.4-0.1,0.2,0.1l-1.6,2.2
			c-0.4,0.6-0.8,1.2-1.2,1.8c-0.3,0.4-0.8,1-1.5,0.7s-0.5-1.3-0.5-1.9c0-0.3,0-0.6,0-0.9c0-0.3,0.1-1-0.4-1.1
			c-0.4-0.1-0.7,0.4-0.8,0.6c-0.4,0.7-0.9,1.4-1.4,2.2c-0.2,0.4-0.5,0.7-0.7,1.1c-0.2,0.3-0.4,0.7-0.7,1l0,0c-0.5,0.7-1.5,1-1.6,0.1
			c0,0-0.1-1.4-0.2-2.2c0-0.2,0-0.4,0-0.6c-0.1-0.4-0.5-0.6-0.8-0.4c-0.2,0.1-0.4,0.3-0.5,0.5C352.4,223.2,347.5,227.4,347.6,227.2z
			"/>
	</g>
	<circle class="st3" cx="545.5" cy="431.2" r="8"/>
	<circle class="st3" cx="97.5" cy="243.2" r="8"/>
	<g>
		
			<image style="overflow:visible;enable-background:new    ;" width="315" height="229" xlink:href="B1A11E71.png"  transform="matrix(1 0 0 1 103.5255 502.2423)">
		</image>
	</g>
</g>
</svg>
