<?xml version="1.0" encoding="utf-8"?>
<!-- Generator: Adobe Illustrator 26.0.1, SVG Export Plug-In . SVG Version: 6.00 Build 0)  -->
<svg version="1.1" id="Layer_1" xmlns="http://www.w3.org/2000/svg" xmlns:xlink="http://www.w3.org/1999/xlink" x="0px" y="0px"
	 viewBox="0 0 600 741" style="enable-background:new 0 0 600 741;" xml:space="preserve">
<style type="text/css">
	.st0{opacity:0.7;fill:url(#SVGID_1_);enable-background:new    ;}
	.st1{opacity:0.2;}
	.st2{fill:#14334C;}
	.st3{fill:#FBD460;}
	.st4{fill:#FFFFFF;}
	.st5{fill:url(#SVGID_00000106867994427315833450000013436680839025343409_);}
	.st6{fill:#FFA08D;}
	.st7{fill:#0058D8;}
	.st8{fill:#0092FF;}
	.st9{fill:#FFC5B3;}
	.st10{fill:#0F0F0F;}
</style>
<g>
	
		<linearGradient id="SVGID_1_" gradientUnits="userSpaceOnUse" x1="720.6897" y1="169.3424" x2="242.7323" y2="765.7681" gradientTransform="matrix(1 0 0 1 0 -246)">
		<stop  offset="0.5568" style="stop-color:#F5BB15"/>
		<stop  offset="1" style="stop-color:#FFFFFF;stop-opacity:0"/>
	</linearGradient>
	<path class="st0" d="M445.8,716l-251,71.3c-26.6,7.6-53.8-11.5-54.9-39.1c0-0.6,0-1.2,0-1.8v-558c0-23.5,16.6-42.8,37.8-44.7
		c2.5-0.2,4.9-0.6,7.3-1.3l251-71.3c26.6-7.6,53.8,11.5,54.9,39.1c0,0.6,0,1.2,0,1.8v558c0,23.5-16.6,42.8-37.8,44.7
		C450.7,715,448.2,715.3,445.8,716z"/>
	<g class="st1">
		
			<image style="overflow:visible;enable-background:new    ;" width="502" height="502" xlink:href="3AE6B30B.png"  transform="matrix(0.998 0 0 0.998 84.8531 141.1894)">
		</image>
	</g>
	<g>
		<path class="st2" d="M35.9,455.3c-1.6,0-3-0.1-4.5-0.3c-1.4-0.2-2.8-0.6-4-1.1c-1.3-0.5-2.4-1.1-3.4-1.9s-1.9-1.7-2.7-2.8
			s-1.3-2.3-1.7-3.7c-0.4-1.4-0.6-3-0.6-4.7c0-1.2,0.1-2.4,0.2-3.5c0.1-1.1,0.3-2.3,0.5-3.4c0.2-1.2,0.6-2.3,1-3.5s0.9-2.5,1.4-3.9
			l6.8,2.8c-0.5,1.1-0.9,2.1-1.3,3.2c-0.4,1-0.7,2.1-0.9,3.1s-0.4,1.9-0.5,2.9c-0.1,0.9-0.2,1.7-0.2,2.5c0,0.9,0.2,1.7,0.5,2.4
			c0.3,0.7,0.7,1.2,1.2,1.7s1.1,0.9,1.8,1.2c0.7,0.3,1.4,0.5,2.1,0.7c0.7,0.2,1.5,0.3,2.2,0.4s1.4,0.1,2.1,0.1c0.3,0,0.8,0,1.4-0.1
			c0.6,0,1.3-0.1,2-0.2s1.5-0.2,2.3-0.4c0.8-0.1,1.6-0.3,2.2-0.5s1.3-0.4,1.8-0.7c0.5-0.3,0.8-0.6,1-0.9c-1-0.6-2.4-1.2-4.3-1.7
			s-4.1-0.9-6.6-1.2l1-7.7h17.5v8.1h-2.5c0.2,0.3,0.3,0.7,0.4,1.2c0.1,0.4,0.2,0.8,0.2,1.1c0,1.3-0.3,2.5-0.8,3.6s-1.2,2-2.1,2.9
			c-0.9,0.8-1.9,1.5-3,2.1s-2.3,1.1-3.5,1.5s-2.4,0.7-3.6,0.9C38,455.2,36.9,455.3,35.9,455.3z"/>
		<path class="st2" d="M53.5,433.7H56c0.5,0,1,0,1.7-0.1s1.2-0.2,1.7-0.3c0.5-0.2,1-0.4,1.4-0.6c0.4-0.3,0.6-0.6,0.6-1
			c0-0.3-0.1-0.7-0.3-1.3s-0.5-1.2-0.9-2s-0.7-1.6-1.2-2.4c-0.4-0.9-0.8-1.7-1.2-2.5l7.3-3.6c0.4,0.9,0.8,1.9,1.2,2.9
			c0.4,1,0.7,2,1,3.1c0.3,1,0.5,2,0.7,3s0.3,1.9,0.3,2.8c0,1.8-0.3,3.3-0.9,4.6c-0.6,1.3-1.4,2.3-2.5,3.1c-1,0.8-2.3,1.4-3.8,1.8
			s-3.1,0.6-4.8,0.6h-2.9v-8.1H53.5z M60,418l-4.5-4.5L60,409l4.5,4.5L60,418z"/>
		<path class="st2" d="M70.4,441.2c0.1-0.9,0.1-1.8,0.2-2.8s0.1-2,0.2-3c0-1,0.1-2,0.1-2.9s0-1.8,0-2.6c0-2.5-0.1-4.8-0.2-6.9
			s-0.3-4-0.4-5.7s-0.3-3.2-0.5-4.4c-0.2-1.3-0.3-2.3-0.4-3.2l7.9-2.6c0.3,2,0.6,3.9,0.7,5.9s0.3,3.7,0.4,5.4s0.2,3.3,0.2,4.7
			s0.1,2.6,0.1,3.6c0,0.9,0,1.9,0,3s0,2.2,0,3.4c0,1.2-0.1,2.4-0.1,3.6s-0.1,2.4-0.2,3.5L70.4,441.2z"/>
		<path class="st2" d="M90,441.8c-1.8,0-3.6-0.3-5.4-1s-3.5-1.8-5.1-3.4l4.7-6.6c0.7,0.6,1.3,1,1.9,1.4s1.2,0.7,1.7,0.9
			s1,0.4,1.5,0.4c0.4,0.1,0.9,0.1,1.2,0.1c0.3,0,0.6,0,1,0s0.7-0.1,1.1-0.1c0.4-0.1,0.7-0.1,1.1-0.2c0.3-0.1,0.6-0.2,0.9-0.4
			c-0.5-1.1-1.1-2.3-1.6-3.5c-0.6-1.2-1.2-2.5-1.8-3.8c-0.6-1.3-1.2-2.6-1.9-4s-1.3-2.7-1.9-4l7.5-3.1l6.8,16.3
			c0.4,1.1,0.9,1.8,1.5,2.3s1.1,0.7,1.7,0.7h0.6v8.1h-0.6c-0.8,0-1.5-0.1-2.1-0.2c-0.6-0.1-1.2-0.3-1.7-0.5s-1-0.5-1.4-0.8
			s-0.8-0.6-1.2-0.9c-0.6,0.4-1.3,0.7-1.9,1s-1.3,0.6-1.9,0.8c-0.7,0.2-1.4,0.4-2.1,0.5C91.6,441.7,90.8,441.8,90,441.8z"/>
		<path class="st2" d="M122.7,433.7v8.1h-0.5c-0.6,0-1.3-0.1-1.9-0.2s-1.3-0.3-1.9-0.5c-0.6-0.2-1.1-0.5-1.6-0.8s-0.8-0.7-1.1-1
			c-0.4,0.4-0.9,0.8-1.5,1.1s-1.3,0.6-2.1,0.8s-1.6,0.3-2.5,0.4s-1.8,0.1-2.7,0.1h-2.4v-8.1h2.4c0.9,0,1.6,0,2.3-0.1
			c0.6,0,1.2-0.1,1.6-0.3c0.4-0.2,0.8-0.4,1-0.7c0.2-0.3,0.4-0.7,0.4-1.3c0.1-0.5,0-1.2-0.1-2s-0.3-1.8-0.5-2.9l7.3-1.8
			c0.1,0.5,0.2,1.1,0.4,1.8c0.1,0.7,0.2,1.5,0.3,2.2c0.1,0.8,0.1,1.5,0.1,2.2s0,1.3-0.1,1.8c0.1,0.3,0.3,0.5,0.5,0.6
			s0.5,0.2,0.7,0.3c0.3,0.1,0.5,0.1,0.7,0.1s0.4,0,0.6,0h0.6V433.7z M112.6,447l-3.8,3.8l-4-3.9l3.9-3.9l3.9,3.9l3.8-3.8l4,3.9
			l-3.9,3.9L112.6,447z"/>
		<path class="st2" d="M141.6,441.5c-0.5,0.2-1,0.3-1.7,0.3s-1.3-0.1-2-0.2s-1.4-0.4-2.1-0.6s-1.4-0.5-2.1-0.8
			c-0.7-0.3-1.3-0.6-1.9-0.9c-0.6-0.3-1.1-0.6-1.5-0.8c-0.4,0.6-0.9,1.1-1.4,1.5s-1.1,0.8-1.7,1.1c-0.6,0.3-1.3,0.5-2,0.7
			s-1.4,0.2-2.2,0.2h-1v-8.1h1c0.6,0,1.2-0.1,1.7-0.2c0.5-0.2,0.9-0.4,1.3-0.7s0.7-0.7,1-1.1s0.6-0.9,0.8-1.5c0.3-0.6,0.6-1.3,1-2
			c0.3-0.7,0.7-1.4,1.2-2c0.4-0.7,0.9-1.3,1.4-1.9s1.1-1.1,1.7-1.6c0.6-0.5,1.3-0.8,2-1.1c0.7-0.3,1.5-0.4,2.3-0.4
			c1.2,0,2.2,0.2,3.2,0.7s1.8,1.2,2.5,2s1.3,1.8,1.8,2.9s0.9,2.2,1.1,3.4c0.2,1.2,0.3,2.4,0.3,3.5c0,1.2-0.2,2.3-0.6,3.3
			s-0.8,1.9-1.5,2.7S142.5,441.1,141.6,441.5z M136.9,428.4c-0.3,0-0.6,0.1-0.9,0.4s-0.6,0.6-0.8,0.9c-0.3,0.4-0.5,0.8-0.8,1.2
			c-0.2,0.4-0.4,0.9-0.6,1.2c0.3,0.2,0.7,0.4,1.1,0.7c0.4,0.2,0.9,0.5,1.5,0.7c0.5,0.2,1.1,0.4,1.7,0.5c0.6,0.1,1.2,0.2,1.9,0.3
			c0.2-0.6,0.2-1.2,0.1-1.9c-0.1-0.7-0.3-1.3-0.6-1.9s-0.7-1.1-1.1-1.5C138,428.6,137.5,428.4,136.9,428.4z"/>
		<path class="st2" d="M146.2,448.3c1.7-0.4,3.2-0.8,4.7-1.2c1.4-0.5,2.7-1,3.9-1.6c1.1-0.6,2.1-1.2,2.9-1.8
			c0.8-0.6,1.4-1.3,1.9-1.9c-0.2,0-0.4,0-0.7,0s-0.5,0-0.7,0s-0.5,0-0.7,0s-0.4,0-0.5,0c-1.5-0.1-2.8-0.4-4-0.8s-2.2-1-3-1.8
			s-1.5-1.7-2-2.8c-0.5-1.1-0.7-2.4-0.7-3.8c0-0.9,0.1-1.8,0.3-2.7c0.2-0.9,0.5-1.9,1-2.8s0.9-1.7,1.5-2.5s1.2-1.5,1.9-2.1
			s1.4-1.1,2.2-1.4s1.6-0.5,2.4-0.5c1.1,0,2.2,0.2,3.2,0.7s1.9,1.2,2.7,2s1.5,1.8,2.2,2.9s1.2,2.3,1.6,3.5s0.8,2.4,1,3.7
			c0.2,1.2,0.3,2.4,0.3,3.6c0,1.8-0.2,3.5-0.7,5.1s-1.1,3-2,4.3s-1.9,2.5-3.1,3.6c-1.2,1.1-2.5,2-3.9,2.9c-1.4,0.8-3,1.6-4.6,2.2
			s-3.3,1.1-5,1.5L146.2,448.3z M156.3,428.1c-0.4,0-0.8,0.1-1.1,0.4s-0.6,0.6-0.9,1c-0.3,0.4-0.4,0.8-0.6,1.2
			c-0.1,0.4-0.2,0.9-0.2,1.2c0,0.3,0.1,0.5,0.4,0.7c0.2,0.2,0.6,0.4,1,0.5s0.8,0.2,1.3,0.3c0.5,0.1,1,0.1,1.5,0.2
			c0.5,0,1,0.1,1.5,0.1s0.9,0,1.3,0c-0.1-0.6-0.2-1.3-0.5-1.9c-0.2-0.7-0.5-1.3-0.9-1.8s-0.8-1-1.3-1.3
			C157.4,428.3,156.9,428.1,156.3,428.1z"/>
		<path class="st2" d="M171.4,430.6c1.5,0.9,2.9,1.6,4.4,2.2c1.4,0.5,2.7,0.9,3.9,1c0.5,0,1,0.1,1.5,0s0.9-0.1,1.3-0.1
			c0.4-0.1,0.7-0.2,1-0.3s0.5-0.3,0.6-0.6c0.2-0.4,0.1-0.9-0.1-1.4s-0.7-1.2-1.3-1.9c-0.6-0.7-1.3-1.4-2.1-2.1s-1.6-1.4-2.5-2.2
			c-0.9-0.7-1.7-1.4-2.5-2s-1.5-1.2-2.2-1.7l4.6-6.8c1,0.8,2.1,1.6,3.1,2.5s2,1.7,2.9,2.7c0.9,0.9,1.8,1.9,2.6,2.9s1.5,2,2,3.1
			s1,2.1,1.3,3.3c0.3,1.1,0.5,2.3,0.5,3.5c0,1.4-0.2,2.7-0.7,3.8c-0.5,1.2-1.2,2.2-2.1,3c-0.9,0.8-2,1.5-3.3,2s-2.7,0.7-4.3,0.7
			h-0.3c-0.1,0-0.1,0-0.2,0c-0.1,0-0.1,0-0.2,0c-1,0-2-0.1-2.9-0.3c-1-0.2-1.9-0.4-2.9-0.8c-0.9-0.3-1.9-0.7-2.8-1.2
			c-0.9-0.5-1.8-0.9-2.7-1.5L171.4,430.6z"/>
	</g>
	<circle class="st3" cx="249.9" cy="590.1" r="4"/>
	<g>
		<g>
			
				<image style="overflow:visible;opacity:7.000000e-02;enable-background:new    ;" width="145" height="145" xlink:href="3AE6B309.png"  transform="matrix(1 0 0 1 21.7662 265.2423)">
			</image>
			<g>
				<path class="st3" d="M89.5,363.1L89.5,363.1c16.5,0,29.9-13.4,29.9-29.9l0,0c0-16.5-13.4-29.9-29.9-29.9l0,0
					c-16.5,0-29.9,13.4-29.9,29.9l0,0C59.6,349.7,73,363.1,89.5,363.1z"/>
			</g>
		</g>
		<g>
			<path class="st4" d="M76.6,347.3H78v-21.5h-1.4c-1.8,0-3.3,1.5-3.3,3.3V344C73.3,345.8,74.8,347.3,76.6,347.3z M102.5,325.8H91.3
				l1.8-5.5c0.3-1,0.2-2.2-0.4-3c-0.7-0.9-1.7-1.4-2.7-1.4h-0.4l-8.2,9v22.4h17.9l6.4-14.2l0.1-0.7v-3.3
				C105.8,327.3,104.4,325.8,102.5,325.8z"/>
		</g>
	</g>
	
		<radialGradient id="SVGID_00000138575085504574578520000015918024083202407856_" cx="192.936" cy="1176.442" r="98.6531" gradientTransform="matrix(1.6418 0 0 1.3584 191.8261 -1258.4288)" gradientUnits="userSpaceOnUse">
		<stop  offset="5.540901e-07" style="stop-color:#FFFFFF"/>
		<stop  offset="1" style="stop-color:#FFFFFF;stop-opacity:0"/>
	</radialGradient>
	
		<rect x="505.3" y="150.2" style="fill:url(#SVGID_00000138575085504574578520000015918024083202407856_);" width="6.6" height="379"/>
	<circle class="st3" cx="545.9" cy="439.2" r="8"/>
	<circle class="st3" cx="403.9" cy="19.2" r="8"/>
	<g>
		<path class="st6" d="M198.2,214.2c-9.4,1.7-17.8,11.1-27.7,16.1c-9.3,4.7-15.7,26.6-19.7,29.8c-2.2-13.4-9.2-32.9-9.2-32.9
			s17.2-16.1,13.5-25.6c-3.4-8.8-17.8-21.1-28.7-8.7c-10.7,12.2-6.4,23.9-6.7,43.4c-0.2,9-0.6,33.6,11.8,53.6
			c6.8,11.1,9.9,16.1,22.4,11.2c10.8-4.3,13.1-11.6,20.8-22.3c8.3-11.6,18.6-20.3,23.5-23.4C207.6,249.6,198.2,214.2,198.2,214.2z"
			/>
		<path class="st6" d="M339,385c0,0,9.5,10.9,20.7,26c12,16.2,28,11,38,19.1c22.2,18,55.1,43.4,62.9,51.7
			c11.4,12.1,13.5,27.5,13.5,27.5s7.7,0.8,10.6-13.5c2.9-14.3,0.9-23,0.9-23s-4.3-10.3-15.5-23.6c-17.9-21.2-38.7-51.4-67.5-61.4
			c-14.2-22.7-21.1-30.2-21.1-30.2L339,385z"/>
		<path class="st7" d="M268.5,304.3c0,0,22.5,26.6,27.9,40.3c4,10.3,53.5,53.4,53.5,53.4s30.6-2.4,38.5-32.8
			c-8.6-36.7-9.5-51-28.1-55.9C341.7,304.3,268.5,304.3,268.5,304.3z"/>
		<path class="st8" d="M209.3,217.9l-0.8-15.9c0,0,24.8-2.6,49.9,6.5c33,11.9,52.6,26.7,98.1,80.6c8.9,10.5,24.8,26.1,16.6,49.4
			c-8.2,23.4-28.3,32.6-44.7,47.3C312,400.6,291.3,406,291.3,406s5.6-12.9-13.9-25.8c-13.2-8.8-16.3-15-16.3-15l40.7-47.4
			c0,0-48.1-9.9-63.3-18.1c-13.4-7.2-47.9-37.7-47.9-37.7L209.3,217.9z"/>
		<path class="st7" d="M245.8,251.2c0,0-3.2,26.5,15.8,34.3s34-1.4,39.8-14.6s0-25.5,0-25.5L245.8,251.2z"/>
		<path class="st6" d="M194.4,258.9l44.1,12.1c0,0-6.9-12.2-5-26.4c2.1-16,14.5-19.3,12-22.7c-5.9-8.3-27.5-3.9-27.5-3.9
			L194.4,258.9z"/>
		<path class="st9" d="M212.1,198.7c-10.7-8.1-36-10.8-45.3,15.4c-9.7,27.5,15.1,61.8,28.4,55.9c7.4-3.3,23-14.9,27.4-29.3
			C227.6,224.4,220.4,205.1,212.1,198.7z"/>
		<path class="st10" d="M160.9,229.2c1.2,6.2,7.3,10.6,18.5,6.5c1.9-0.7,8.6-7.8,15.1-6.8c8,1.1,13-5.6,13-5.6s4.7,3.1,11.5,7.3
			c3.5,2.1,3.7,10.1,3.7,10.1s13.9-14.1,10.2-30.5c-2.3-10.2-11.8-26.3-33.1-28.4c-19.3-1.9-26.3,11.3-35.1,25.3
			C160.2,214.2,160.3,225.9,160.9,229.2z"/>
		<path class="st10" d="M456,301.3L456,301.3c-3.9,0-7-3.2-7-7v-76c0-3.9,3.2-7,7-7l0,0c3.9,0,7,3.2,7,7v76
			C463.1,298.1,459.9,301.3,456,301.3z"/>
		<path class="st9" d="M468.4,231.9c-9-11.8-27.7-5.8-50.2-17.6c-28.8-15.1-46.3-19.1-59.4-18c-10.5,0.8-13.2,6.8-41.1,9.4
			c-13,1.2-25.7,8.1-36.4,13l0,0c-10.7-6.3-20.9,0.1-24,3.2c-9.2,9.1-13.7,18.7-11.5,29.3c2.1,10.6,7.3,25,22.7,25.6
			c9.1,0.3,20.8-5.3,27.3-11.7c11.3-11,20.1-7.2,36.9-16.5c16.3-9.1,30.2-20.6,30.2-20.6s18.9,7.2,25.5,8.5c9.8,2,31.8,1.3,40.5,7.4
			c5.8,4.1,10.1,15.5,15.7,19.8c2.4,1.8,4.4,2.1,4.4,2.1s0.4-6.7,5.7-9.4c2.4-1.2,6.3-0.5,8.4,4.3c3.9-0.3,8.7-2.1,9.6-3.5
			C476.6,251.2,472,236.6,468.4,231.9z"/>
		<path class="st9" d="M261.1,365.1c0,0-25,26.8-27.7,30.7c-7.3,10.7-6.1,23.8,4,36.4c10.2,12.7,41.2,37.2,48.3,44.2
			c7,7,19.6,17.7,18.2,23.3c-1.4,5.6-7,25.1-7,25.1s16.9,15.5,26.7,0c9.8-15.5,15.4-16.9,15.4-16.9s-15.4-30.7-21.1-40.5
			c-5.6-9.8-10.9-28.9-21.8-40.2c-4.7-4.9-17.5-11.5-17.5-11.5l32.6-17.8C311.3,397.9,295.9,346,261.1,365.1z"/>
		<path class="st6" d="M281.4,218.7l-16.1,8.7c0,0,1.1-7.7,3.2-11C275.1,214.2,281.4,218.7,281.4,218.7z"/>
		<path class="st4" d="M313.7,313c26.5-14.4,32.2-36.2,32.2-36.2l1.2,1.4c0,0-0.8,13.7-10.6,23C328.3,309.2,313.7,313,313.7,313z"/>
		<path class="st4" d="M211.1,279.3c0,0,3.3-2.5,7.2-2.5c2.5,0,9.6,3.8,10.6,6.9c0.9,3.1-1.5,4.7-1.5,4.7s6.7,2.6,10,5.1
			c3.4,2.5,4.5,7.7,4.5,7.7s-4-1-13.6-8.3c-1.6-1.2-6.8-5.3-6.8-5.3s3-2.1,0.9-4.2s-7.6-1.1-7.6-1.1L211.1,279.3z"/>
		<g>
			<path class="st8" d="M301.3,509.4c0,0-6.3,14.3-12.6,26.2c-4.3,8.2-5.9,15.2-10.9,22.4c-4.4,6.2,5.8,8.6,16.3,8.2
				c5.3-0.2,12-3.5,16.3-6.5c6.3-4.4,6-8.7,12.2-20.4c3-5.6,9.8-11.5,13.9-16.3c4.5-5.4,5.7-13.5,5.7-13.5s-4.5-18.8-10.8-17.3
				c-4.2,1,0.6,13.8-5.9,15.4C317.8,509.4,305.9,505.9,301.3,509.4z"/>
			<path class="st4" d="M304,508.1c-4.1,6.8-5.8,14.5-8.3,20.9s3.4,7.9,6.6,1.2c3.7-7.5,8.7-22.4,8.7-22.4S305.5,507.1,304,508.1z"
				/>
			<path class="st10" d="M276.8,561.2c0,0,5.4-2.8,10.8,0c5.3,2.8,10.2,2.9,18-0.6s9.9-13.4,16.4-22.4c6.5-9.1,13.8-14.4,16.3-18.1
				c3.3-4.8,2.9-14.7,2.9-14.7s2.8,3.1,3.3,5.5c0.9,4.1-0.9,8.7-2.2,10.9c-1.7,3-3.3,6-8.6,9.9c-2.7,2-8.2,7.9-10.2,11.2
				s-4.2,15.2-13.1,20.5c-8.9,5.2-20.1,7.7-27.4,4.4C275.7,564.5,276.8,561.2,276.8,561.2z"/>
			<path class="st7" d="M306,557.5c0,0-4.7-20.5,10.6-30.3c19-12.3,22.4-27.5,22.4-27.5l2.2,5.8c0,0-1,10.9-12,19.4
				c-6.5,5-11.2,8.1-16.2,14.2C309,544,306,557.5,306,557.5z"/>
		</g>
		<g>
			<path class="st8" d="M470.1,449.2c0,0-0.3,2.6,1.1,6.2c1.9,4.7,5.4,10.9,0.6,14.8c-3.4,2.8-15.1,11-15.1,11s0.1,7.8,0,14.2
				c-0.1,7.5,0,18-0.6,23.3c-0.5,5.3-2.2,13.7,4,16.5c10.3,4.6,17.5-1.9,21.7-9.9c4.2-8.1,3.7-24,4.2-28.8c0.5-4.8,0.9-14,5-21.2
				c5.7-9.9,3.2-15-0.4-19.8C486,449.1,478.6,451,470.1,449.2z"/>
			<path class="st10" d="M456.4,530.6c0,0,4.1-3.3,9.8-2.5c5.7,0.8,10.2,2.5,13.5-6.1s2-31.9,5.7-40.4c3.7-8.6,8.6-20,8.6-20
				s3.8,4.5,0.5,11.9c-3.4,7.4-7.5,14.7-6.6,22.7c0.8,8,2.7,32.1-11.7,37.8C461.7,539.6,457.8,534.5,456.4,530.6z"/>
			<path class="st7" d="M475.6,517c0,0-13.2-21-2.2-35.4c13.7-18,10.5-30.6,10.5-30.6l4.9,2.3c0,0,3.4,10.2-4,21.9
				c-4.4,7-6.5,11.2-9.1,18.7C473.6,499.8,475.6,517,475.6,517z"/>
			<path class="st4" d="M456.7,481.1c-1,7.9,0.6,15.6,1,22.4c0.4,6.9,6.3,5.8,6.5-1.7c0.3-8.4-1.2-25.2-1.2-25.2
				S457.6,479.5,456.7,481.1z"/>
		</g>
		<path class="st4" d="M347.1,301.3c0,0,15.6,17.7,1.7,32.9c-13.9,15.2-47.8,43.1-47.8,43.1l3.8,5.7c0,0,38.5-30,50-46.9
			c10.1-14.9,5-25.9,0.8-33.9c-3.8-7.2-11.1-13.1-11.1-13.1l-3.4,6.7L347.1,301.3z"/>
		<path class="st6" d="M241.9,424.7c0,0,2.7,4.2,8.9,8.8c6.1,4.6,8.7,7.4,8.7,7.4s1-7.7-1.9-11.9
			C254.7,424.8,241.9,424.7,241.9,424.7z"/>
	</g>
	<g>
		
			<image style="overflow:visible;enable-background:new    ;" width="315" height="229" xlink:href="3AE6B30F.png"  transform="matrix(1 0 0 1 142.7662 480.2423)">
		</image>
	</g>
</g>
</svg>
