<?xml version="1.0" encoding="utf-8"?>
<!-- Generator: Adobe Illustrator 26.0.1, SVG Export Plug-In . SVG Version: 6.00 Build 0)  -->
<svg version="1.1" id="Layer_1" xmlns="http://www.w3.org/2000/svg" xmlns:xlink="http://www.w3.org/1999/xlink" x="0px" y="0px"
	 viewBox="0 0 600 741" style="enable-background:new 0 0 600 741;" xml:space="preserve">
<style type="text/css">
	.st0{opacity:0.7;fill:url(#SVGID_1_);enable-background:new    ;}
	.st1{opacity:0.2;}
	.st2{fill:#14334C;}
	.st3{fill:#FBD460;}
	.st4{fill:#FFFFFF;}
	.st5{fill:url(#SVGID_00000016076760144456043560000012486395987883322281_);}
	.st6{fill:#5F130D;}
	.st7{fill:#FF966C;}
	.st8{fill:#113C54;}
	.st9{fill:#357092;}
	.st10{fill:#FC571E;}
	.st11{fill:#C27D56;}
	.st12{fill:#B62C43;}
	.st13{fill:#F83B4F;}
	.st14{fill:#FFBA55;}
</style>
<g>
	
		<linearGradient id="SVGID_1_" gradientUnits="userSpaceOnUse" x1="710.1678" y1="158.3063" x2="232.2105" y2="754.7319" gradientTransform="matrix(1 0 0 1 0 -246)">
		<stop  offset="0.5568" style="stop-color:#F5BB15"/>
		<stop  offset="1" style="stop-color:#FFFFFF;stop-opacity:0"/>
	</linearGradient>
	<path class="st0" d="M435.2,705l-251,71.3c-26.6,7.6-53.8-11.5-54.9-39.1c0-0.6,0-1.2,0-1.8v-558c0-23.5,16.6-42.8,37.8-44.7
		c2.5-0.2,4.9-0.6,7.3-1.3l251-71.3c26.6-7.6,53.8,11.5,54.9,39.1c0,0.6,0,1.2,0,1.8v558c0,23.5-16.6,42.8-37.8,44.7
		C440.1,703.9,437.6,704.2,435.2,705z"/>
	<g class="st1">
		
			<image style="overflow:visible;enable-background:new    ;" width="502" height="502" xlink:href="31271ADC.png"  transform="matrix(0.998 0 0 0.998 81.2997 94.1279)">
		</image>
	</g>
	<g>
		<g>
			<path class="st2" d="M93,574.2c-1.6,0-3-0.1-4.5-0.3c-1.4-0.2-2.8-0.6-4-1.1c-1.3-0.5-2.4-1.1-3.4-1.9c-1-0.8-1.9-1.7-2.7-2.8
				c-0.8-1.1-1.3-2.3-1.7-3.7s-0.6-3-0.6-4.7c0-1.2,0.1-2.4,0.2-3.5c0.1-1.1,0.3-2.3,0.5-3.4c0.2-1.2,0.6-2.3,1-3.5
				c0.4-1.2,0.9-2.5,1.4-3.9l6.8,2.8c-0.5,1.1-0.9,2.1-1.3,3.2c-0.4,1-0.7,2.1-0.9,3.1s-0.4,1.9-0.5,2.9c-0.1,0.9-0.2,1.7-0.2,2.5
				c0,0.9,0.2,1.7,0.5,2.4s0.7,1.2,1.2,1.7s1.1,0.9,1.8,1.2c0.7,0.3,1.4,0.5,2.1,0.7s1.5,0.3,2.2,0.4c0.7,0.1,1.4,0.1,2.1,0.1
				c0.3,0,0.8,0,1.4-0.1c0.6,0,1.3-0.1,2-0.2c0.7-0.1,1.5-0.2,2.3-0.4c0.8-0.1,1.6-0.3,2.2-0.5c0.6-0.2,1.3-0.4,1.8-0.7
				s0.8-0.6,1-0.9c-1-0.6-2.4-1.2-4.3-1.7c-1.9-0.5-4.1-0.9-6.6-1.2l1-7.7h17.5v8.1h-2.5c0.2,0.3,0.3,0.7,0.4,1.2
				c0.1,0.4,0.2,0.8,0.2,1.1c0,1.3-0.3,2.5-0.8,3.6s-1.2,2-2.1,2.9c-0.9,0.8-1.9,1.5-3,2.1c-1.1,0.6-2.3,1.1-3.5,1.5
				s-2.4,0.7-3.6,0.9C95.2,574,94,574.2,93,574.2z"/>
			<path class="st2" d="M128.9,552.5v8.1h-0.4c-0.6,0-1.3-0.1-1.9-0.2c-0.6-0.1-1.3-0.3-1.9-0.5c-0.6-0.2-1.1-0.5-1.6-0.8
				s-0.8-0.7-1.1-1c-0.4,0.4-0.9,0.8-1.5,1.1c-0.6,0.3-1.3,0.6-2.1,0.8c-0.8,0.2-1.6,0.3-2.5,0.4c-0.9,0.1-1.8,0.1-2.7,0.1h-2.4
				v-8.1h2.4c0.9,0,1.6,0,2.3-0.1c0.6,0,1.2-0.1,1.6-0.3c0.4-0.2,0.8-0.4,1-0.7s0.4-0.7,0.4-1.3c0.1-0.5,0-1.2-0.1-2
				c-0.1-0.8-0.3-1.8-0.5-2.9l7.3-1.8c0.1,0.5,0.2,1.1,0.4,1.8c0.1,0.7,0.2,1.5,0.3,2.2c0.1,0.8,0.1,1.5,0.1,2.2s0,1.3-0.1,1.8
				c0.1,0.3,0.3,0.5,0.5,0.6s0.5,0.2,0.7,0.3c0.3,0.1,0.5,0.1,0.7,0.1s0.4,0,0.6,0h0.5C128.9,552.3,128.9,552.5,128.9,552.5z
				 M120.2,535.5l-3.8,3.8l-4-3.9l3.9-3.9l3.9,3.9l3.8-3.8l4,3.9l-3.9,3.9L120.2,535.5z"/>
			<path class="st2" d="M152.6,561c-0.7,0-1.3-0.1-1.9-0.3c-0.6-0.2-1.2-0.5-1.7-0.8s-1-0.7-1.3-1.1c-0.4-0.4-0.7-0.7-0.9-1.1
				c-0.3,0.4-0.6,0.8-1,1.2s-0.8,0.7-1.3,1s-1.1,0.6-1.7,0.7c-0.6,0.2-1.3,0.3-2,0.3c-0.6,0-1.3-0.1-1.8-0.2
				c-0.6-0.2-1.1-0.4-1.6-0.7s-0.9-0.6-1.3-1c-0.4-0.4-0.7-0.8-0.9-1.2c-0.2,0.4-0.5,0.8-0.9,1.1c-0.4,0.4-0.8,0.7-1.4,0.9
				c-0.5,0.3-1.2,0.5-1.8,0.6c-0.7,0.2-1.4,0.2-2.2,0.2h-0.8v-8.1h0.4c0.9,0,1.6-0.2,2.2-0.7s1.1-1.1,1.5-1.9
				c0.4-0.8,0.8-1.8,1.1-2.9c0.3-1.1,0.6-2.2,1-3.4l6.9,1.3c-0.1,0.5-0.3,1.1-0.4,1.7c-0.1,0.6-0.3,1.2-0.4,1.9s-0.2,1.2-0.3,1.8
				s-0.1,1.1-0.1,1.6s0.1,0.8,0.2,1.1s0.3,0.4,0.6,0.4c0.5,0,0.9-0.2,1.3-0.5c0.4-0.3,0.7-0.7,1-1.1c0.3-0.5,0.6-1,0.8-1.6
				s0.4-1.2,0.6-1.9c0.2-0.7,0.3-1.3,0.4-2c0.1-0.7,0.2-1.3,0.4-2l6.1,0.4c0,0.4-0.1,1-0.2,1.6c-0.1,0.6-0.1,1.2-0.2,1.8
				c-0.1,0.6-0.1,1.3-0.1,1.9s0.1,1.2,0.2,1.7s0.3,0.9,0.6,1.2s0.7,0.4,1.2,0.4c0.4,0,0.8-0.2,1.1-0.5s0.6-0.7,0.8-1.2
				s0.4-1.1,0.5-1.7c0.1-0.6,0.2-1.2,0.3-1.9c0.1-0.6,0.1-1.2,0.1-1.8s0-1.1-0.1-1.5l6.7-1c0.1,1.6,0.3,3,0.5,4.1s0.5,2,0.8,2.7
				s0.7,1.2,1.1,1.5s0.9,0.5,1.4,0.5h0.7v8.1h-0.7c-1.3,0-2.5-0.2-3.7-0.6c-1.2-0.4-2.2-1.1-3.1-2c-0.4,0.4-0.8,0.8-1.3,1.1
				s-1,0.6-1.5,0.9s-1.1,0.5-1.8,0.6C154,560.9,153.3,561,152.6,561z M148.9,536l-3.8,3.8l-4-3.9l3.9-3.9l3.9,3.9l3.8-3.8l4,3.9
				l-3.9,3.9L148.9,536z M152.5,530l-3.6,3.6l-3.7-3.7l3.6-3.6L152.5,530z"/>
			<path class="st2" d="M165.9,552.5h1.8c0.6,0,1.3,0,2,0s1.3,0,2-0.1s1.2-0.1,1.8-0.3c0.6-0.1,1.1-0.3,1.5-0.5s0.8-0.5,1-0.8
				s0.4-0.8,0.4-1.3s-0.1-1.1-0.4-1.6c-0.3-0.6-0.6-1.2-1.1-1.8c-0.4-0.6-1-1.2-1.6-1.9c-0.6-0.6-1.3-1.3-2-2s-1.4-1.3-2.2-2
				s-1.5-1.4-2.3-2.1l0.7-6.6l17.2-7.6l3.1,7l-12.3,5.7c1,0.8,1.9,1.7,2.9,2.7c0.9,1,1.8,2.1,2.5,3.2c0.7,1.1,1.3,2.3,1.8,3.5
				c0.4,1.2,0.7,2.4,0.7,3.7c0,1.7-0.3,3.2-0.9,4.6c-0.6,1.3-1.4,2.5-2.4,3.4s-2.2,1.6-3.5,2.1s-2.8,0.7-4.4,0.7h-6.3V552.5z"/>
		</g>
	</g>
	<circle class="st3" cx="171.3" cy="490.2" r="4"/>
	<g>
		<g>
			
				<image style="overflow:visible;opacity:7.000000e-02;enable-background:new    ;" width="145" height="145" xlink:href="31271ADB.png"  transform="matrix(1 0 0 1 67.1 23.35)">
			</image>
			<g>
				<path class="st3" d="M134.9,121.1L134.9,121.1c16.5,0,29.9-13.4,29.9-29.9l0,0c0-16.5-13.4-29.9-29.9-29.9l0,0
					c-16.5,0-29.9,13.4-29.9,29.9l0,0C105,107.7,118.4,121.1,134.9,121.1z"/>
			</g>
		</g>
		<g>
			<path class="st4" d="M122,105.3h1.4V83.8H122c-1.8,0-3.3,1.5-3.3,3.3V102C118.7,103.8,120.1,105.3,122,105.3z M147.9,83.8h-11.2
				l1.8-5.5c0.3-1,0.2-2.2-0.4-3c-0.7-0.9-1.7-1.4-2.7-1.4H135l-8.2,9v22.4h17.9l6.4-14.3l0.1-0.7V87
				C151.2,85.2,149.8,83.8,147.9,83.8z"/>
		</g>
	</g>
	
		<radialGradient id="SVGID_00000106137759138047263090000002191389025441089430_" cx="188.6471" cy="1141.9237" r="98.6533" gradientTransform="matrix(1.6418 0 0 1.3584 191.5792 -1258.5391)" gradientUnits="userSpaceOnUse">
		<stop  offset="5.540901e-07" style="stop-color:#FFFFFF"/>
		<stop  offset="1" style="stop-color:#FFFFFF;stop-opacity:0"/>
	</radialGradient>
	
		<rect x="498" y="103.2" style="fill:url(#SVGID_00000106137759138047263090000002191389025441089430_);" width="6.6" height="379"/>
	<g>
		
			<image style="overflow:visible;enable-background:new    ;" width="315" height="229" xlink:href="31271AE4.png"  transform="matrix(1 0 0 1 268.1 500.35)">
		</image>
	</g>
	<circle class="st3" cx="534.3" cy="238.2" r="8"/>
	<circle class="st3" cx="299.3" cy="30.2" r="8"/>
	<g>
		<path class="st6" d="M70.1,242.5c0.1-1.5,0-3.3-1.1-4.2c-1.4-1.2-3.5-0.5-5.2,0.3c-8.1,3.8-15.5,9.1-21.6,15.5
			c-2.7,2.8-5.2,5.9-6.7,9.5s-1.8,7.8-0.1,11.3c2.1,4.3,6.6,6.8,10.8,9c2,1.1,19.8,6.8,21.8,7.9c2.4-1.3,3.5-8.1,5.7-9.7
			c2.7-2-9.4-4.3-7.3-6.8c2.1-2.5,3.8-5.2,5.1-8.1L70.1,242.5z"/>
		<path class="st7" d="M451.2,194.4c-31.4,3.9-62.9,6.2-94.5,6.9c-5.9,0.1-11.8,0.2-17.6,1.2c-8.5,1.5-16.5,5.2-24.2,9
			c-3.3,1.7-6.6,3.4-9.9,5.1c2.2,18,15.2,32.8,32,39.2c3.9-4,7.6-8.2,11.1-12.5c17.5-2.3,35-4.7,52.5-7c6.6-0.9,13.3-1.8,19.8-3.5
			c12.3-3.3,23.6-9.6,34.6-16.1C456,209.2,454.6,201.4,451.2,194.4z"/>
		<path class="st8" d="M304.9,216.7c-2.5,1.3-4.9,2.7-7.3,4L274.8,281c-0.8,6.6-1.6,13.2-2.4,19.8c24.1-10.9,46.2-26,64.5-45
			C320.2,249.6,307.1,234.7,304.9,216.7z"/>
		<path class="st9" d="M97,282.6c7.9-5.4,15.9-10.8,24.5-15c24.5-12,53.8-13.8,79.7-5c-5.2,4.1-10.5,8.2-15.9,12.1
			c-8.7,6.4-17.7,12.6-27.7,16.7c-10,4.2-21.1,6.2-31.7,4.2c-6.8-1.3-13.1-4.3-19.3-7.2L97,282.6z"/>
		<path class="st10" d="M192.1,356.9c-1.1-0.2-2.3-0.5-3.4-0.7c-1.3-0.3-2.8-0.5-3.9,0.3c-1,0.8-1.2,2.1-1.4,3.4
			c-0.4,3.4-0.4,6.9-0.2,10.3c0,0.1,0,0.2,0.1,0.3c0.1,0,0.2-0.2,0.1-0.2L192.1,356.9z"/>
		<path class="st7" d="M66.6,290.6c4.3,3.5,9,6.5,13.9,9c2.2,1.1,4.5,2.1,6.9,2.7c6,1.4,12.2,0.2,18-1.8c11.2-3.8,21.7-10.7,28-20.8
			c1.2-2,2.3-4.2,2.1-6.5c0-0.2-0.1-0.4-0.2-0.6c-0.3-0.4-0.8-0.3-1.3-0.2c-5.3,1.2-11-0.3-16.4,0.4c-5.6,0.7-10.6,3.6-15.4,6.4
			c0.4-1.4,0.7-2.9,0.5-4.4s-0.9-2.9-2.2-3.7c-0.8-0.5-1.8-0.6-2.8-0.7C87,269.5,76,272.1,67,277.8c-2,1.2-4,3-4,5.3L66.6,290.6z"/>
		<g>
			<path class="st11" d="M77.8,282.2c2.7,1.7,6.1,2.1,9.3,2.4c3.7,0.4,8,0.5,10.4-2.3c-2.2,2.9-4.6,5.7-7.3,8.1
				c5-2.6,9.5-6.3,12.2-11.2c0.4-1.4,0.7-2.9,0.5-4.4s-0.9-2.9-2.2-3.7c-0.1-0.1-0.2-0.1-0.3-0.1C94.3,277.1,86.3,281.2,77.8,282.2z
				"/>
		</g>
		<path class="st6" d="M178.5,384.1c-1.5,1.2-3.1,2.5-3.3,4.4c-0.2,1.8,0.9,3.5,2,5c7.7,10.3,17.5,18.9,28.7,25.3
			c4.5,2.6,9.7,4.9,14.8,3.8c3.5-0.8,6.5-3,9.2-5.4c4.2-3.6,8.3-7.8,10.2-13c3.5-9.7,1.9-20.4,3.2-34.2c-5.1,2.7-10.3,6.8-14.3,10.9
			c-0.3,0.3-1.1-0.1-1.4-0.3c-5.1-3.5-11.4-5.4-17.6-5.4L178.5,384.1z"/>
		<path class="st7" d="M231.7,386.9c5.8-9.4,12.2-18.3,19.3-26.7c-6.5-8.5-13-17-18.2-26.3c-4.4,4.4-8.1,9-11,14.6
			c-4.2-4.3-9.9-7.1-15.8-7.9c-0.9-0.1-1.9-0.2-2.8,0c-0.8,0.2-1.4,0.6-2.1,1c-5.5,3.7-9.1,9.6-12.4,15.3
			c-5.3,9.2-10.2,18.8-11.8,29.2c6.7,5.8,14.1,10.4,22.3,13.8c-0.6-5-0.2-10.5,2.8-14.6c3.4-4.7,9.4-6.7,15-8.4L231.7,386.9z"/>
		<path class="st11" d="M518.3,387.7c-0.9-2.5-2.7-4.5-4.5-6.3c-15-15.7-32.6-28.8-51.7-39c-10.6,10.5-21.5,20.7-29.9,32.9
			c6.6,6.9,13.2,13.9,19.8,20.8c6.3,6.6,12.5,13.2,17.8,20.5c-20.5,29.7-27.5,65.8-33.5,101.4c9.6-15.9,20.5-31,32.5-45.2l37.3-49.1
			c6.6-8.1,11-18,12.4-28.3C518.9,392.8,519.1,390.2,518.3,387.7z"/>
		<path class="st12" d="M462,342.4c-26.3-13.9-55.6-22.2-85.3-23.8c6.1,4.9,11.5,10.5,16.9,16.2c12.8,13.5,25.7,26.9,38.5,40.4
			C440.5,363.1,451.4,353,462,342.4z"/>
		<path class="st13" d="M467.8,355.6c-1-1-1.9-2-2.9-3c-23.4-23.1-55.1-43.5-84.7-57.8c-18.4-8.9-42.1-13.6-62.3-10.9
			c-8.5,1.1-16.7,4.1-24.7,7.2c-12.6,4.9-26.2,9.9-36.1,19.2c-10.2,1.1-20.3,3.8-29.3,8.8c-3.4,14.6,2.1,29.9,9.9,42.7
			c2.5,4.1,5.4,8.2,9.1,11.2c5.7,4.5,13.2,6.3,20.5,6.7c22.8,1.4,44.7-8.5,65.3-18.5c8.2-4,16.4-8,24.6-12.1
			c6.1,9.1,13.4,18.5,22.3,24.9c3.9,2.8,8.2,5.1,12.5,7.2c13.7,6.6,28.3,11.5,41.9,18.3C439.3,381.2,452,366.1,467.8,355.6z"/>
		<path class="st7" d="M70.3,281.9c7.1,5.4,17.5,4.5,25.3,0.3c3-1.6,5.8-3.8,7.6-6.7c1.8-2.9,2.3-6.7,0.8-9.8
			c-1-2.1-2.9-3.6-4.7-5.1c-9.5-7.7-20.6-15.4-31-22c-8.3,2.4-15.6,8-20,15.4c4.8,1.6,9.9,3.1,13.4,6.7c3.5,3.6,5.1,9.7,2.1,13.8
			C66.5,276.4,67.8,280,70.3,281.9z"/>
		<path class="st6" d="M76.8,257.2c-1.3,0.2-2.6,0.6-3.9,1c-1.2,0.4-2.4,1-3,2.1c0.5,0,0.7,0.4,1.1,0.6c1-1.2,2.4-2,3.9-2.4
			c-0.9,1-1.7,2.2-2.2,3.4c0.5,0.2,0.8,0.4,1.2,0.5C74.3,260.6,75.5,258.6,76.8,257.2z"/>
		<path class="st6" d="M72.2,252.8c0.6-0.1,1.2,0.6,1.1,1.2c-2,0.3-4,1.2-5.5,2.5C68.8,255,70.4,253.1,72.2,252.8z"/>
		<g>
			<path class="st6" d="M81.2,251.9c0.8-1.2,1.8-2.1,3.1-2.7c-0.3-0.2-0.6-0.4-1-0.7c-0.5,0.5-1,1-1.5,1.5c0-0.8,0.2-1.6,0.4-2.3
				c-0.2-0.1-0.4-0.3-0.6-0.4C81,248.8,80.9,250.4,81.2,251.9z"/>
			<path class="st6" d="M75.3,247.6c-0.1-1.3,0.4-2.7,1.2-3.8c-0.5-0.3-0.9-0.6-1.4-0.9C74.8,244.5,74.8,246.1,75.3,247.6z"/>
		</g>
		<path class="st10" d="M89.7,259.1c-3-2.2-6.3-4-9.7-5.4c1.6-0.4,2.7-0.5,4.3-0.2c1.3,0.2,2.5,0.6,3.5,1.4s1.8,1.9,2,3.2
			C89.9,258.2,89.6,259.2,89.7,259.1z"/>
		<g>
			<path class="st4" d="M94.6,263c-0.3-0.4-0.7-0.8-1-1.2c-2.9,1.7-4.8,4.9-5,8.3c0.9-1.7,2-3.4,3.2-4.8
				C92.6,264.2,93.5,263.5,94.6,263z"/>
			<path class="st12" d="M94.6,263c-1.1,0.5-2,1.4-2.8,2.3c-1.3,1.5-2.4,3.1-3.2,4.8c0,0.3,0,0.5,0,0.8c2.7,0.2,6.8-0.9,8.4-3.1
				C96.5,266.2,95.7,264.4,94.6,263z"/>
		</g>
		<path class="st9" d="M248.2,213.8c-9.3,14.9-17.3,30.7-23.9,47c-4.6,0.1-10.2-0.9-14.8-1.7c-18.2-3-36.9-3.2-55.1-0.7
			c-7.2,1-16.3,1.5-19.4,8.2c-3.2,6.9-9.9,11.4-16.3,15.5c-6.2,4-12.3,8-18.5,11.9c-10.8,7-22.2,14.6-27.3,26.5
			c-1.1,2.7-1.9,5.6-1.6,8.5c0.3,2.5,1.3,4.8,2.4,7.1c3.3,6.7,7.3,13,11.9,18.8c1.5,2,3,4.5,5.1,5.8c2.5,1.6,5.7,1.5,8.6,1.3
			c11.8-0.6,23.6-1.2,35.1-3.8c11.9-2.7,23.2-7.4,34.4-12.1c22.7-9.4,45.6-18.5,69.7-23.2c12.9-2.5,27.8-5.7,36.5-15.5
			c5.8-6.4,9.9-14.2,13.8-21.9c7-13.8,13.6-28,17.5-42.9C283.7,242.4,260.2,232.5,248.2,213.8z"/>
		<path class="st13" d="M423.8,128.9c-7.7,1.3-15.4,2.7-23.1,4.2c4,7.5,5.9,15.8,6.6,24.2c5.1-3.3,10.1-6.7,15-10.2
			c1.7-1.2,3.4-2.5,5.4-3.2C429,138.3,427.9,132.5,423.8,128.9z"/>
		<path class="st7" d="M319.8,152.5c-9.4,2.7-18.9,5.6-27.3,10.6c-11,6.5-19.6,16.3-27.5,26.5c-6,7.8-11.7,15.9-16.9,24.3
			c12,18.7,35.6,28.5,58.2,28.9c0.9-3.6,1.7-7.2,2.4-10.8c2-11.7,2.6-23.9,6.5-35.1c32.6-8.1,63.8-21.5,92.1-39.6
			c-0.8-8.4-2.7-16.6-6.6-24.2C373.5,138.3,346.4,144.8,319.8,152.5z"/>
		<path class="st9" d="M456.7,119.3c1.3-13.5-1.8-26.3-5.9-38.9c-1.5,0.8-2.9,1.8-3.9,3.2c-2.8,3.8-1.9,9-3.1,13.6
			c-0.8,3.2-2.7,6-4.5,8.7c-4.9,7.4-10,15.5-14.9,22.9c-0.2,0-0.4,0.1-0.5,0.1c4.1,3.6,5.1,9.4,3.9,14.9c0.3-0.1,0.5-0.2,0.8-0.2
			c1.9-0.5,4-0.3,6-0.3c6.5,0.3,13.7-0.4,20.3-1.7C454.7,134.1,455.9,126.7,456.7,119.3z"/>
		<path class="st4" d="M454.2,78.8c-1.2,0.5-2.3,1-3.5,1.6c4.2,12.5,7.3,25.4,5.9,38.9c-0.7,7.3-1.9,14.8-1.8,22.2
			c1.6-0.3,3.1-0.7,4.6-1.1c-0.5-8-1-16,0.5-23.9c0.7-3.7,1.8-7.4,2.1-11.2C462.8,96.2,458.4,87,454.2,78.8z"/>
		<path class="st9" d="M502.7,150c-2.4,1.7-4.2,4.2-5,7c-1.1,3.7-0.5,7.9-2.1,11.4c-1.1,2.5-3.2,4.4-5.2,6.2
			c-5.8,5.2-12.6,11.8-18.3,17l0,0c2,5.3,2,11.2,0.2,16.6c8.9-2.4,19.5-1.7,28.7-3.7c0.1-0.8,0.3-1.5,0.5-2.3
			C505.6,184.7,508.5,166.8,502.7,150z"/>
		<path class="st4" d="M510.2,168.7c-0.1-6.7-3.2-13.6-5-20.1c-0.9,0.4-1.7,0.9-2.5,1.4c5.8,16.7,2.9,34.6-1.3,52.2
			c-0.2,0.7-0.3,1.5-0.5,2.3c2.1-0.4,4.1-1,6-1.8c0.9-8,1.8-16.1,2.7-24.1C509.9,175.3,510.3,172,510.2,168.7z"/>
		<path class="st13" d="M472,191.6c-6.9,1-13.8,1.9-20.8,2.8c3.5,7,4.9,14.7,3.7,22.3c1.1-0.6,2.1-1.3,3.2-1.9
			c4.3-2.5,8.7-5.1,13.5-6.5c0.2-0.1,0.4-0.1,0.6-0.2C474,202.8,474,197,472,191.6z"/>
		<path class="st7" d="M90.7,468.8c-21.4-20.3-34-45.3-38.5-53c-1.6-2.7-3.1-5.4-3.9-8.3c-1.5-5.6-0.1-11.5,1.5-17
			c4.4-15.1,11.6-30,19.2-43.8c-1.3-9.1-1.8-19.2,3.5-26.7c4.7-6.6,12.9-9.7,20.6-12.4c8.2-2.9,16.6-1.6,25.3-1.2s17.4,2.4,24.7,7
			c7.5,4.7,13.2,11.9,17.9,19.4c0.5,0.9,1.1,1.9,0.9,2.9c-0.2,0.9-0.9,1.6-1.5,2.2c-6.2,5.4-14.3,8-22.1,10.3
			c-9.6,2.8-19.2,5.4-28.9,7.5c-5.3,8.5-13.6,16.2-20.2,23.7c-6.6,7.5-12.7,16.1-14.3,26C86,422.2,89.3,443.1,98.8,461
			c4.5-0.8,9.2-2,13.7-2.8c1.3-0.2,2.7-0.5,4-0.2c1,0.2,1.8,0.7,2.6,1.2c1.4,0.8,2.8,1.7,4.2,2.5c1.4,0.9,2.9,1.7,4,3
			c0.8,1,1.4,2.2,2,3.4c1.2,2.7,2.5,5.3,3.7,8c-1.2,0.4-2.6,0-3.6-0.8s-1.8-1.9-2.6-2.9c-2.3-2.8-5.4-5.1-8.7-6.6
			c1.2,3.8,3.7,7.5,4.8,11.4c1.4,4.6,0.4,9.5-0.8,14.1c-0.1,0.3-0.2,0.5-0.4,0.7c-0.2,0.1-0.5,0-0.7,0c-4.4-1.5-5.6-7.4-9.6-9.9
			c-1.9-1.2-4.1-1.4-6.2-2C98.5,478.2,95.7,473.6,90.7,468.8z"/>
		<g>
			<path class="st11" d="M147.4,338c-6.8,3.3-14.1,5.6-21.6,6.9c1-3.7,1.3-7.5,1-11.2c-4.5,7.5-12.6,13.7-17.5,22
				c9.7-2.1,19.3-4.7,28.9-7.5c7.9-2.3,15.9-4.9,22.1-10.3c0.7-0.6,1.4-1.3,1.5-2.2c0.2-1-0.4-2-0.9-2.9c-0.6-0.9-1.2-1.9-1.8-2.8
				C155.9,333.4,151.7,335.9,147.4,338z"/>
		</g>
		<path class="st7" d="M268.3,318.6c-4.6-15.5-2.6-32.6-8.2-47.9c-0.6-1.7-1.3-3.4-2.2-4.9c-2.9-5-7.6-8.7-12.8-11.2
			s-10.8-3.9-16.4-5.1c-14-3-28.3-5-42.5-7c-3.6-0.5-7.1-1-10.7-0.8c-3,0.2-6.8-0.3-8.9,1.8c-2.2,2.2-3.7,5.1-4.1,8.1
			c-0.2,1.5-0.2,3.2,0.6,4.5c0.4,0.7,1.1,1.3,1.7,1.8c16,13.6,37.9,18.5,54.4,31.4c5.8,4.5,5.9,13.7,7.1,20.9c1.4,8.4,0,17,1.6,25.3
			c2.1,11.1,9.4,20.5,16.4,29.3c2.2,2.8,4.4,5.6,7.2,7.6c7,5.1,16.6,5,25.2,3.4c8.8-1.7,17.6-4.7,24.9-9.8
			c7.3-5.2,13.2-12.7,15.4-21.5c0.8-3.1,1.1-6.5,0-9.5c-2-5.9-8.1-9.2-13.9-11.3C292.6,320,279.5,317.6,268.3,318.6z"/>
		<path class="st11" d="M225,248.7c-12.8-2.6-25.8-4.4-38.7-6.2c-3.6-0.5-7.1-1-10.7-0.8c-3,0.2-6.8-0.3-8.9,1.8
			c-2.2,2.2-3.7,5.1-4.1,8.1c-0.2,1.5-0.2,3.2,0.6,4.5c0.4,0.7,1.1,1.3,1.7,1.8c7.2,6.1,15.6,10.5,24.2,14.6c3-2,5.9-3.9,9-6.1
			C206.7,259.2,215.4,253.4,225,248.7z"/>
		<g>
			<path class="st11" d="M303.1,323.8c-10.6-3.7-23.6-6.2-34.8-5.2c3.3,9.1,7.7,18.8,13,26.8c-1.8-5.7-3.1-11.6-3.6-17.5
				c-0.1-0.7-0.1-1.4,0.3-2c0.3-0.3,0.6-0.5,1-0.7c5-2.4,10.8-2.5,16.2-1.3c5.4,1.2,10.4,3.6,15.3,6.2c2.1,1.1,4.3,2.3,6.1,3.8
				C314.3,328.7,308.6,325.7,303.1,323.8z"/>
		</g>
		<path class="st7" d="M223.3,248.2c-8.2-9.3-20.4-12.7-32.6-14.7c-3.6-0.6-7.5-1-10.7,0.8c-4.6,2.5-8.9,6.5-11.7,10.9
			c-0.7,1.1-1.3,2.2-1.6,3.5c-0.3,1.4-0.1,2.8,0.1,4.1c0.8,4.9,2,9.8,3.6,14.5c0.9,0,1.7-0.7,2.1-1.5c0.4-0.8,0.4-1.8,0.3-2.7
			c-0.1-4-0.6-8,0.6-11.8c0.4,2.5,0.4,4.9,0.9,7.5c0.1,0.7,0.2,1.4,0.5,2c0.4,1,1.2,1.7,1.9,2.4c2.1,2.1,4.3,4.3,6.8,5.8
			c0.2,0.1,0.5,0.3,0.7,0.2c0.1,0,0.3-0.2,0.3-0.3c1.1-1.4,0.6-3.4-0.3-4.9c-0.9-1.5-2.1-2.8-2.6-4.5c-0.5-1.6-0.2-3.2,0.1-4.8
			c0.3-1.8,0.6-3.6,0.9-5.3c0.6,2.8,0.7,6.1,1.5,8.8c0.3,0.9,0.5,1.8,1,2.6c0.6,1.1,1.6,1.9,2.5,2.8c0.6,0.6,1.3,1.2,1.9,1.8
			c0.8,0.8,2.1,1.6,3,0.9c0.6-0.4,0.6-1.3,0.4-2c-0.3-0.7-0.8-1.2-1.2-1.8c-1.1-1.5-1.6-3.4-2-5.3c-0.5-2.3-0.9-4.7-1-7
			c1.3,4.8,3.9,9,7.3,12.6c0.8,0.9,1.9,1.8,3.1,1.7c0.2,0,0.5-0.1,0.7-0.2c0.3-0.3,0.2-0.7,0.1-1.1c-0.6-3.6-1.7-7.1-3.2-10.4
			c4.5-0.6,9.4-1.4,12.7-4.7L223.3,248.2z"/>
		<path class="st6" d="M188.8,371.1c0,1.4-0.6,2.6-1.4,2.6c-0.8,0-1.4-1.2-1.4-2.6s0.6-2.6,1.4-2.6
			C188.2,368.5,188.8,369.6,188.8,371.1z"/>
		<path class="st12" d="M202,359.1c-1.8-0.9-3.6-1.8-5.1-3.1s-2.8-3-3.1-5c-0.1-0.5,0.1-0.9,0.4-1.2c0.1,1.4,1,2.6,1.8,3.6
			C197.8,355.4,200.1,357.5,202,359.1z"/>
		<path class="st6" d="M189.2,382.2c-2.7,0-5.3-1.3-6.9-3.4c-0.2,0.5-1.3,0.6-1.4,1.1c1,1.1,2.3,1.7,3.7,1.9
			C186,382.2,187.8,382.4,189.2,382.2z"/>
		<path class="st9" d="M433.7,546c2.4,1.1,5.1,1.9,7.8,2.5c-0.3-3.1-0.3-6.2,0-9.2c0.4-3.7,2.5-6.9,4.6-9.9c1.6-2.3,3.2-4.6,4.9-6.8
			c-7.9-1.8-14.9-5.6-18.7-12.8c-3.3,7.3-7.1,14.4-11.8,20.9c-0.6,0.8-1.2,1.6-1.8,2.4C421.7,539,427.9,543.4,433.7,546z"/>
		<path class="st14" d="M452.8,577.9c-5.8-8.3-10.3-18.9-11.3-29.3c-2.7-0.6-5.3-1.4-7.8-2.5c-5.8-2.6-12-7-15-12.9
			c-4.7,6.1-8.8,9.9-12.2,17.5c-1.1,2.5-2,5.5-1,8c0.7,1.5,2,2.7,3.3,3.8c8.5,7.3,17,14.6,25.5,21.9c3.5,3,7.3,6.2,11.9,6.7
			s9.9-3.1,9.3-7.7C455.3,581.2,454,579.5,452.8,577.9z"/>
		<path class="st7" d="M506.9,408.5c-11.4-18.6-24-37.3-39.2-53c-15.7,10.5-28.5,25.7-33.9,43.9c4.8,2.4,9.4,4.9,13.9,7.9
			c10.3,6.8,19.4,15.5,26.7,25.5c-15,11.4-23.1,29.5-30.1,46.9c-4,10-7.6,20.3-12.1,30.1c3.8,7.2,10.7,11,18.7,12.8
			c19-25.8,41.8-49,58.7-76.2c2.1-3.3,4.1-6.8,5-10.6C516.9,426.4,512,416.8,506.9,408.5z"/>
	</g>
</g>
</svg>
