<?xml version="1.0" encoding="utf-8"?>
<!-- Generator: Adobe Illustrator 26.0.1, SVG Export Plug-In . SVG Version: 6.00 Build 0)  -->
<svg version="1.1" id="Layer_1" xmlns="http://www.w3.org/2000/svg" xmlns:xlink="http://www.w3.org/1999/xlink" x="0px" y="0px"
	 viewBox="0 0 600 741" style="enable-background:new 0 0 600 741;" xml:space="preserve">
<style type="text/css">
	.st0{opacity:0.7;fill:url(#SVGID_1_);enable-background:new    ;}
	.st1{opacity:0.2;}
	.st2{fill:#14334C;}
	.st3{fill:#FBD460;}
	.st4{fill:#FFFFFF;}
	.st5{fill:url(#SVGID_00000181048432912048284510000016754179680934374802_);}
	.st6{fill:#9E9EA6;}
	.st7{fill:#3A3A51;}
	.st8{fill:#F7F7F7;}
	.st9{fill:#FFCFC4;}
	.st10{fill:#CF304E;}
	.st11{fill:#F09A92;}
	.st12{fill:#383D4A;}
	.st13{fill:#4A5061;}
	.st14{fill:#A3263D;}
	.st15{fill:#FFC64A;}
</style>
<g>
	
		<linearGradient id="SVGID_1_" gradientUnits="userSpaceOnUse" x1="696.5654" y1="169.2999" x2="218.6079" y2="765.7254" gradientTransform="matrix(1 0 0 1 0 -246)">
		<stop  offset="0.5568" style="stop-color:#F5BB15"/>
		<stop  offset="1" style="stop-color:#FFFFFF;stop-opacity:0"/>
	</linearGradient>
	<path class="st0" d="M421.6,716l-251,71.3c-26.6,7.6-53.8-11.5-54.9-39.1c0-0.6,0-1.2,0-1.8v-558c0-23.5,16.6-42.8,37.8-44.7
		c2.5-0.2,4.9-0.6,7.3-1.3l251-71.3c26.6-7.6,53.8,11.5,54.9,39.1c0,0.6,0,1.2,0,1.8v558c0,23.5-16.6,42.8-37.8,44.7
		C426.5,714.9,424,715.3,421.6,716z"/>
	<g class="st1">
		
			<image style="overflow:visible;enable-background:new    ;" width="502" height="502" xlink:href="E0828494.png"  transform="matrix(1 0 0 1 59.7077 141.0423)">
		</image>
	</g>
	<g>
		<path class="st2" d="M61.9,434c-0.3,0.5-0.5,1-0.8,1.6c-0.2,0.6-0.4,1.1-0.6,1.7s-0.3,1.2-0.4,1.8c-0.1,0.6-0.1,1.2-0.1,1.8
			c0,0.8,0.3,1.6,0.7,2.4c0.4,0.7,0.9,1.4,1.6,2c0.6,0.6,1.3,1,2.1,1.3s1.6,0.5,2.4,0.5c0.6,0,1.2-0.1,1.8-0.2
			c0.6-0.1,1.3-0.3,1.9-0.5s1.2-0.6,1.8-0.9c0.6-0.4,1.1-0.8,1.5-1.4s0.8-1.1,1.1-1.8c0.3-0.7,0.4-1.5,0.4-2.3c0-1.1,0-2.4-0.1-3.8
			s-0.2-3.1-0.3-4.9c-0.1-1.8-0.3-3.7-0.4-5.8c-0.2-2.1-0.3-4.2-0.5-6.4c-0.1-0.7-0.1-1.5-0.2-2.4c-0.1-0.8-0.1-1.7-0.2-2.5
			c-0.1-0.9-0.1-1.7-0.2-2.6s-0.1-1.7-0.2-2.5l8.2-1.9l0.2,4.4l0,0c0.1,1.5,0.1,3,0.2,4.5s0.1,2.9,0.2,4.4c0.1,1.7,0.1,3.5,0.2,5.4
			s0.1,3.7,0.2,5.4c0.1,1.8,0.1,3.4,0.1,4.9s0,2.8,0,3.9c0,1.9-0.2,3.6-0.7,5.1s-1.1,2.8-1.9,3.9s-1.7,2.1-2.7,2.9s-2.1,1.4-3.3,1.9
			c-1.2,0.5-2.4,0.8-3.6,1.1c-1.2,0.2-2.4,0.3-3.5,0.3c-1,0-2-0.1-3.1-0.3s-2.1-0.6-3.2-1.1c-1-0.5-2-1.1-3-1.8
			c-0.9-0.7-1.8-1.6-2.5-2.6s-1.3-2.2-1.7-3.5s-0.6-2.8-0.6-4.4c0-1.7,0.2-3.2,0.4-4.5s0.5-2.4,0.8-3.3c0.1-0.4,0.3-0.9,0.5-1.3
			s0.4-0.9,0.7-1.4L61.9,434z"/>
		<path class="st2" d="M94.8,441.7c-1.9,0-3.4-0.2-4.7-0.7c-1.3-0.5-2.3-1.2-3.1-2.1c-0.8-0.9-1.4-1.9-1.8-3.1s-0.6-2.5-0.6-3.9
			c0-1.8,0-3.7,0-5.5s0-3.7,0-5.6s-0.1-3.8-0.2-5.7c-0.1-1.9-0.3-3.8-0.6-5.8l7.7-2.3c0.4,1.8,0.6,3.7,0.7,5.6s0.2,3.9,0.2,5.8
			c0,2,0,3.9,0,5.8s-0.1,3.8-0.1,5.5c0,0.6,0,1.2,0,1.7s0.1,0.9,0.2,1.2s0.4,0.6,0.7,0.7c0.3,0.2,0.8,0.2,1.5,0.2h0.6v8.1
			L94.8,441.7L94.8,441.7z"/>
		<path class="st2" d="M109.8,433.6v8.1h-0.4c-1.3,0-2.4-0.2-3.5-0.6c-1-0.4-1.8-1-2.3-1.8c-0.8,0.9-1.9,1.5-3.3,1.9
			s-3.1,0.6-4.9,0.6h-0.8v-8.1h0.8c0.9,0,1.6,0,2.2-0.1c0.6,0,1.1-0.1,1.5-0.3c0.4-0.2,0.7-0.4,0.9-0.7c0.2-0.3,0.3-0.7,0.3-1.3
			c0-0.5-0.1-1.2-0.2-2s-0.3-1.8-0.6-2.9l7.3-1.8c0.1,0.5,0.2,1.1,0.4,1.8c0.1,0.7,0.2,1.5,0.3,2.2c0.1,0.8,0.1,1.5,0.1,2.2
			s0,1.3-0.1,1.8c0.1,0.3,0.3,0.5,0.4,0.6c0.2,0.1,0.3,0.2,0.5,0.3c0.2,0.1,0.3,0.1,0.5,0.1s0.3,0,0.5,0L109.8,433.6L109.8,433.6z
			 M101.8,452.1l-4.5-4.5l4.5-4.5l4.5,4.5L101.8,452.1z"/>
		<path class="st2" d="M109,433.6h4.1c0.3,0,0.7,0,1.1,0s0.9-0.1,1.3-0.1c0.4-0.1,0.9-0.1,1.3-0.2s0.8-0.2,1.1-0.4
			c0.3-0.1,0.6-0.3,0.8-0.5c0.2-0.2,0.3-0.4,0.3-0.7c0-0.3-0.1-0.7-0.3-1.3c-0.2-0.6-0.5-1.2-0.9-2s-0.7-1.6-1.2-2.4
			s-0.8-1.7-1.2-2.5l7.3-3.6c0.4,0.9,0.8,1.9,1.2,2.9s0.7,2,1,3.1c0.3,1,0.5,2,0.7,3s0.3,1.9,0.3,2.8c0,1.8-0.3,3.3-1,4.6
			c-0.7,1.3-1.5,2.3-2.7,3.1s-2.5,1.4-4,1.8s-3.2,0.6-4.9,0.6h-4.5v-8.2L109,433.6L109,433.6z M118.5,413.4l-3.8,3.8l-4-3.9l3.9-3.9
			l3.9,3.9l3.8-3.8l4,3.9l-3.9,3.9L118.5,413.4z"/>
		<path class="st2" d="M125.8,448.2c1.7-0.4,3.2-0.8,4.7-1.2c1.4-0.5,2.7-1,3.9-1.6c1.1-0.6,2.1-1.2,2.9-1.8
			c0.8-0.6,1.4-1.3,1.9-1.9c-0.2,0-0.4,0-0.7,0s-0.5,0-0.7,0s-0.5,0-0.7,0s-0.4,0-0.5,0c-1.5-0.1-2.8-0.4-4-0.8s-2.2-1-3-1.8
			s-1.5-1.7-2-2.8c-0.5-1.1-0.7-2.4-0.7-3.8c0-0.9,0.1-1.8,0.3-2.7c0.2-0.9,0.5-1.9,1-2.8c0.5-0.9,0.9-1.7,1.5-2.5s1.2-1.5,1.9-2.1
			s1.4-1.1,2.2-1.4s1.6-0.5,2.4-0.5c1,0,1.9,0.2,2.8,0.6c0.9,0.4,1.7,0.9,2.4,1.5s1.4,1.4,2,2.2c0.6,0.9,1.1,1.8,1.6,2.8
			s0.9,2,1.2,3.1s0.6,2.1,0.7,3.2h1.2v8.1h-1.7c-0.6,1.9-1.5,3.7-2.7,5.3c-1.2,1.6-2.6,2.9-4.3,4.1c-1.6,1.2-3.4,2.2-5.4,3
			s-4.1,1.5-6.2,1.9L125.8,448.2z M135.9,428c-0.4,0-0.8,0.1-1.1,0.4s-0.6,0.6-0.9,1c-0.3,0.4-0.4,0.8-0.6,1.2s-0.2,0.9-0.2,1.2
			c0,0.3,0.1,0.5,0.4,0.7c0.2,0.2,0.6,0.4,1,0.5s0.8,0.2,1.3,0.3c0.5,0.1,1,0.1,1.5,0.2c0.5,0,1,0.1,1.5,0.1s0.9,0,1.3,0
			c-0.1-0.6-0.2-1.3-0.5-1.9c-0.2-0.7-0.5-1.3-0.9-1.8s-0.8-1-1.3-1.3C137,428.2,136.5,428,135.9,428z"/>
		<path class="st2" d="M147.9,433.6c0.2,0,0.6,0,1.1,0s1.1,0,1.8,0s1.4,0,2.2-0.1s1.5,0,2.2-0.1c0.7,0,1.4-0.1,2-0.1
			c0.6-0.1,1.1-0.1,1.5-0.2c-1.5,0-3-0.2-4.3-0.4c-1.3-0.2-2.4-0.6-3.4-1.2s-1.7-1.3-2.2-2.2c-0.5-0.9-0.8-2.1-0.8-3.5
			c0-0.8,0.1-1.6,0.2-2.5s0.4-1.7,0.7-2.5s0.7-1.5,1.2-2.3c0.5-0.7,1-1.3,1.6-1.9c0.6-0.5,1.3-1,2.1-1.3s1.6-0.5,2.5-0.5
			c1.1,0,2,0.2,3,0.6c0.9,0.4,1.7,1,2.5,1.7c0.7,0.7,1.4,1.5,2,2.5c0.6,0.9,1.1,1.9,1.4,3s0.7,2.1,0.9,3.2s0.3,2.2,0.3,3.2
			c0,1.9-0.2,3.6-0.7,4.9c-0.4,1.4-1.1,2.5-1.9,3.4s-1.8,1.7-2.9,2.2c-1.1,0.5-2.4,1-3.8,1.2s-2.8,0.5-4.4,0.5
			c-1.6,0.1-3.1,0.1-4.8,0.1h-0.7v-8.1h0.7L147.9,433.6L147.9,433.6z M156.1,413.4l-4.5-4.5l4.5-4.5l4.5,4.5L156.1,413.4z
			 M156.2,421.9c-0.4,0-0.8,0-1.2,0.2c-0.3,0.2-0.6,0.5-0.9,0.8s-0.4,0.7-0.5,1.1s-0.2,0.7-0.2,1.1c0,0.1,0.1,0.3,0.3,0.5
			s0.5,0.3,0.9,0.4s0.8,0.3,1.3,0.4s0.9,0.2,1.4,0.3c0.5,0.1,0.9,0.1,1.3,0.1s0.8,0,1-0.1c-0.1-0.5-0.3-1-0.5-1.5s-0.5-1-0.8-1.5
			c-0.3-0.4-0.7-0.8-1-1.1C157,422.1,156.6,421.9,156.2,421.9z"/>
	</g>
	<circle class="st3" cx="225.7" cy="590.2" r="4"/>
	<g>
		<g>
			
				<image style="overflow:visible;opacity:7.000000e-02;enable-background:new    ;" width="145" height="144" xlink:href="E0828495.png"  transform="matrix(1 0 0 1 11.7077 247.0423)">
			</image>
			<g>
				<path class="st3" d="M79.3,344L79.3,344c16.5,0,29.9-13.4,29.9-29.9l0,0c0-16.5-13.4-29.9-29.9-29.9l0,0
					c-16.5,0-29.9,13.4-29.9,29.9l0,0C49.3,330.6,62.8,344,79.3,344z"/>
			</g>
		</g>
		<g>
			<path class="st4" d="M66.4,328.2h1.4v-21.5h-1.4c-1.8,0-3.3,1.5-3.3,3.3v14.9C63.1,326.8,64.5,328.2,66.4,328.2z M92.3,306.7
				H81.1l1.8-5.5c0.3-1,0.2-2.2-0.4-3c-0.7-0.9-1.7-1.4-2.7-1.4h-0.4l-8.2,9v22.4h17.9l6.4-14.2l0.1-0.7V310
				C95.6,308.2,94.1,306.7,92.3,306.7z"/>
		</g>
	</g>
	
		<radialGradient id="SVGID_00000130627442054471713410000013479200494784176785_" cx="178.2141" cy="1176.4421" r="98.6531" gradientTransform="matrix(1.6418 0 0 1.3584 191.8261 -1258.4288)" gradientUnits="userSpaceOnUse">
		<stop  offset="5.540901e-07" style="stop-color:#FFFFFF"/>
		<stop  offset="1" style="stop-color:#FFFFFF;stop-opacity:0"/>
	</radialGradient>
	
		<rect x="481.1" y="150.2" style="fill:url(#SVGID_00000130627442054471713410000013479200494784176785_);" width="6.6" height="379"/>
	<circle class="st3" cx="521.7" cy="439.2" r="8"/>
	<circle class="st3" cx="379.7" cy="19.2" r="8"/>
	<g>
		<g>
			<path class="st6" d="M171.4,558.9c0,18.9-15.3,34.3-34.3,34.3c-18.9,0-34.3-15.3-34.3-34.3c0-18.9,15.3-34.3,34.3-34.3
				S171.4,540,171.4,558.9z"/>
			<g>
				<path class="st7" d="M160.6,538.8l-0.1,12.5l7.4,10.1l3.4-4.6c-0.3-5.8-2.2-11.4-5.3-16.3L160.6,538.8z"/>
				<path class="st7" d="M163.6,580.7V575l-11.9,3.8l-7.3,10.2l5.4,1.8C155.1,588.7,159.9,585.2,163.6,580.7z"/>
				<polygon class="st7" points="137.1,545.3 124.2,554.7 129.1,569.9 145.1,569.9 150.1,554.7 				"/>
				<path class="st7" d="M137.1,534.3l11.9-3.9l-3.3-4.6c-2.8-0.7-5.7-1.1-8.6-1.1c-2.9,0-5.8,0.4-8.6,1.1l-3.3,4.6L137.1,534.3z"/>
				<path class="st7" d="M130,589l-7.3-10.2l-11.9-3.8v5.7c3.7,4.5,8.5,8,13.9,10.1L130,589z"/>
				<path class="st7" d="M106.3,561.4l7.4-10.1l-0.1-12.5l-5.4,1.7c-3.1,4.9-4.9,10.5-5.3,16.3L106.3,561.4z"/>
			</g>
			<g>
				<path class="st8" d="M160.5,538.1l5,1.6c-4.5-6.7-11.2-11.5-18.9-13.7l3.1,4.3C155.4,532.5,159.9,537.5,160.5,538.1z"/>
				<path class="st8" d="M113.8,538.1c3.9-4.7,10-7.5,10.8-7.8l3.1-4.3c-7.7,2.2-14.4,7-18.9,13.7L113.8,538.1z"/>
				<path class="st8" d="M160.1,551.7l-9.5,3.1l-5,15.3l5.8,8.1l12.1-3.9c0.5-0.8,3.7-6.5,4-12.4L160.1,551.7z"/>
				<path class="st8" d="M160,551.2l0.1-12.7c-0.6-0.7-5.1-5.5-10.5-7.6l-12.1,4v9.9l13.1,9.5L160,551.2z"/>
				<path class="st8" d="M137.6,590.2c-3.6,0-6.6-0.6-7.1-0.7l-5,1.7c3.7,1.4,7.6,2,11.7,2c4,0,7.9-0.7,11.7-2l-5-1.7
					C141.7,590,139.6,590.2,137.6,590.2z"/>
				<path class="st8" d="M171.4,558.9c0-0.4,0-0.8,0-1.1l-3.1,4.2c-0.4,6.1-3.7,12-4.1,12.7v5.2
					C168.8,573.9,171.4,566.5,171.4,558.9z"/>
				<path class="st8" d="M122.7,578.2l5.9-8l-5-15.3l-9.5-3.1l-7.5,10.2c0.1,0.9,0.9,7.4,4,12.4L122.7,578.2z"/>
				<path class="st8" d="M130.6,588.9c0.9,0.2,7.3,1.5,13,0l7.4-10.3l-5.8-8.1h-16.1l-5.9,8.1L130.6,588.9z"/>
				<path class="st8" d="M102.9,557.8c0,0.4,0,0.7,0,1.1c0,7.6,2.6,15,7.2,21v-5.2c-3.3-5.1-4-11.9-4.1-12.7L102.9,557.8z"/>
				<path class="st8" d="M114.3,538.5l0.1,12.7l9.4,3.1l13.1-9.5v-10l-12.1-4C123.9,531.2,118,533.9,114.3,538.5z"/>
			</g>
		</g>
		<g>
			<path class="st9" d="M449,246.1c0,0,11.7,0.5,14.8,0.9c3,0.4,17.5,1.4,30.7-0.3c13.2-1.7,61-9.8,64.7-11
				c3.7-1.3,16.9-6.2,19.4-7.9c2.4-1.6,5.8-4.9,6.5-6c0.6-1.1-0.4-7.9,0-10.8c0.3-1,2-4.5,0.4-5.9c-1.6-1.3-3.8-2.8-4.4-2.7
				c-0.6,0.1-5.6,2.4-5.6,2.4s-3.3-1.2-4.6-1.2c-1.4,0-3.4,0.6-4.6,2.1c-1.2,1.5-6.2,9.4-7.9,11.2c-1.6,1.8-10.5,3.4-27.7,3.9
				c-17.3,0.5-31.4-3.4-48-2.8c-13.1,0.5-19.2,0.2-19.2,0.2c-7.8-3.2-23-7.6-23-7.6l-14.1,29.3C426.3,239.8,438.6,243.7,449,246.1z"
				/>
			<path class="st9" d="M278,244.5c0,0-8.4,8.2-10.7,10.2c-2.4,2-13,11.9-20.7,22.6c-7.7,10.8-34.5,51.2-36.2,54.8
				c-1.6,3.6-7,16.6-7.5,19.5s-0.4,7.6,0,8.8c0.4,1.2,6.1,5.1,7.9,7.4c0.6,0.9,2,4.5,4,4.3s4.6-0.8,5-1.4c0.3-0.6,2.1-5.8,2.1-5.8
				s3.1-1.6,4-2.5c0.9-1,1.9-2.9,1.6-4.8c-0.3-1.9-2.6-11-2.8-13.4s4.7-10,16.1-22.9s24-20.6,34.9-33.1c8.6-9.9,13-14.2,13-14.2
				c7.7-3.5,21.3-11.6,21.3-11.6l-11.7-30.3C298,232.2,286.8,238.5,278,244.5z"/>
			<path class="st10" d="M330.9,465.2c0,0,6.9,3.5,18.6-2.8s92.2-52.4,96.1-54.6c3.9-2.2,0.7-11.8-4.3-13.7c-5-1.9-9.4,0-11.8,0.6
				c-2.4,0.7-29.6,10.8-41.2,13.1c-11.7,2.3-21.3-0.1-41.6,9.3c-20.2,9.4-25.3,23.6-24.4,31.9C323.3,457.4,328.3,464.5,330.9,465.2z
				"/>
			<path class="st11" d="M322.4,449.1c1,8.3,5.9,15.4,8.6,16.1c0,0,5.7,2.8,15.6-1.4c2.4-10.5,5.1-29.6-1.6-45.8
				C326.2,427.5,321.4,441,322.4,449.1z"/>
			<path class="st9" d="M272.9,428.1c-2.8,3.4-8.1,11.4-9.6,13.9s-8.9,14.1-8.9,14.1l29.7,23.5c0,0,4-9,5.1-11
				c1.1-1.9,12.3-12.6,12.3-12.6l10-7.1c0,0-5.8-18-30.9-27.9L272.9,428.1z"/>
			<g>
				<path class="st12" d="M315.5,456.8c0,0,2.6,7,15.1,13.8c14.9-23.2,23.7-53.1,23.7-53.1h-14.6L315.5,456.8z"/>
				<path class="st13" d="M296.7,367.2c0,0-1.2,14.3-1,22.7c-9.3,14.5-20.5,32.8-22.8,38.2c0,0,4.1-0.5,10.1,4.5
					c6,5.1,20.9,20.4,20.9,20.4l-2.4,3c0,0,8.6,8.3,21.7,10.5c2.3-4.7,10.4-20.5,10.4-20.5s42.9-39.6,51.2-52.1
					c8.3-12.5,9.7-33.9,9.7-33.9h-63L296.7,367.2z"/>
				<path class="st12" d="M301.5,456c0,0,8.6,8.3,21.7,10.5L303.9,453L301.5,456z"/>
				<path class="st12" d="M296.7,367.2c0,0-1.2,14.3-1,22.7l18.1-26.2L296.7,367.2z"/>
			</g>
			<path class="st14" d="M311.2,204.8c-14.9,17.5-41,43.3-41,43.3s9.9,18.7,23.8,26.7c12.4-7.6,24-20,24-20S320.4,220.9,311.2,204.8
				z"/>
			<path class="st10" d="M333.7,192.6c0,0-22.6,8.9-22.5,12.2c0.1,3.2-10.3,72.4-8.7,119.5c-4.4,25.2-9.3,46-8.4,46.9
				c0.8,1,15.4,3.9,43.2-1.6c27.8-5.5,32.3-6.3,34.9-6s22.6,8.4,24,7.8c1.5-0.6,4.9-21.8,0-55.2c12-27.3,26.5-62.4,26.5-62.4
				s28.9-1.3,30.7-1.5c1.8-0.2,9.7-10.2,11.5-22.7s2.6-16.9,1.5-17.1s-48.1-8.8-52.3-9.7c-4.2-1-45.3-13.5-45.3-13.5
				S352.6,181.4,333.7,192.6z"/>
			<path class="st14" d="M396.3,316.2c12-27.3,26.5-62.4,26.5-62.4s-23.5,10.4-29.4,13.6C392.2,280,396.3,316.2,396.3,316.2z"/>
			<path class="st15" d="M368.8,189.4c0,0-16.2-8-35.1,3.2c0,0-1.7,0.7-4.2,1.8c-0.6,3.3-0.8,7.6,0.5,12.5l6.1,18.8
				c0,0,8.1,0.6,14.8,1.8c12.1-4.5,28.6-18.8,29.6-34.6C373.8,190.9,368.8,189.4,368.8,189.4z"/>
			<path class="st11" d="M336.4,209.4c1.8,4,4.9,11.3,6.7,11.4c1.8,0.1,14-4.5,20.4-12.3s6-16.8,6-16.8l-8.2-5L336.4,209.4z"/>
			<g>
				<path class="st9" d="M313.6,164.7c-0.5,5.8,0.2,13,1.1,17.1s1.2,4.7,1.2,7c-0.1,2.4-1.5,8.9-0.9,9.7s6.3,1.5,6.3,1.5
					s4.8,11.2,5.6,13.3c0.8,2.1,2.7,2.7,5,2s19.5-9.1,24-14c4.5-5,6.5-12.9,6.5-12.9s5.6,0.5,9.6-8.3c3.9-8.8,4.3-32.4-6.5-42.1
					c-10.7-9.7-31.6-8-40.6,0C316,146.1,314.4,156.1,313.6,164.7z"/>
				<path class="st13" d="M313.5,167.4c0,0,12.7-7.5,15.7-8.7s4.4-0.7,5.1,0.5c0.7,1.1,2.3,7.3,3.4,7.7s9.2-0.7,9.7-0.2
					c0.5,0.6,5.3,13.8,5.3,13.8s3.7-1.3,4-1.7c0.2-0.4,0.3-5.2,1.3-7c0.9-1.7,4.5-3.8,5.5-3.2c0.9,0.6,5.3,3.3,5.8,6.8
					c0.5,3.4-3.5,11.6-6.5,13.2c2.2,1.2,6.7,3.2,6.7,3.2s6.7-8,8.9-20.9c2.2-12.9-1.7-25.3-4.1-29.1c-2.3-3.8-6.7-6.1-6.7-6.1
					s-10.6-7.6-18.9-7.4c-8.3,0.1-19.3,2-28,9.8s-9.7,16.8-9.5,19.9C311.6,160.9,313.5,167.4,313.5,167.4z"/>
			</g>
			<path class="st15" d="M336.1,224.4c-0.2,0-0.3,0-0.5,0c-10.3,0-21.2,4.8-27.6,8.1c-0.1,1-0.2,2.1-0.4,3.2
				c5.7-3.1,17.4-8.7,28-8.7c0.2,0,0.3,0,0.5,0c14.9,0.2,39.1,5.2,79.1,44.9c0.4-0.9,0.7-1.7,1.1-2.6
				C376.1,229.6,351.3,224.6,336.1,224.4z"/>
			<path class="st14" d="M323.3,351.5c0,0-13.8-17.6-20.8-49.3c-0.2,7.7-0.2,15.2,0,22.2c0,0.2-0.1,0.4-0.1,0.6
				C306,333.4,312.3,344.1,323.3,351.5z"/>
			<path class="st10" d="M255.3,455.9c9.7-0.8,24.8,10.7,29.4,22.1c-5.7,15.3-14.3,26.1-27.6,38.6c-13.3,12.5-53.8,50.2-57,54.1
				c-3.2,3.9-6,6.3-10.1,6.2c-4.1-0.2-14.9-8.1-9.6-16.6c5.4-8.4,40.8-57,49.5-70.6c8.8-13.6,23-31.7,23.6-32.5
				C254.2,456.4,254.1,455.9,255.3,455.9z"/>
			<path class="st13" d="M191.2,565.3c-0.6-4.7-2.3-11-6.4-11.3s-15.5,2.7-24,3.2c-8.6,0.5-17,0.5-19.4,0.2s-5.2,3-3.9,6.7
				s4.5,9.7,13.7,14c9.2,4.2,19.5,5.2,24.1,7.4c4.7,2.2,14.2,7.1,17,7.7c2.8,0.5,4.5-2.3,5.1-4.4c0.5-2.2,3.4-13.1,2.7-15.1
				s-5-1.2-6.5-2.7C192.1,569.3,191.2,565.3,191.2,565.3z"/>
			<path class="st13" d="M443,409.4c1.4,1.2,10.5-1,16.8-2.3s17.8-2.2,22.7-1.3c5,0.9,9.3,3,10.9,1.7s1-5.9,0-8s-6.3-10.4-14.3-12.8
				s-19.4-2.1-23.5-3.4s-14.8-5.3-16.9-5.4s-4.9,2.7-5.3,4.5s-5.4,11.2-4.6,12.4c2.7,0.3,8,1.6,10.8,5.2
				C442.5,403.7,441.3,407.8,443,409.4z"/>
		</g>
		<path class="st3" d="M356.1,266.4c2.1-2.1,7-7.2,9.1-9.1c1.6-1.4,3.1-2.8,4.7-4.1c0.5-0.5,1-0.9,1.5-1.4c0.7-0.6,1.7-0.1,1.6,0.8
			l0,0l-1.1,4.1c0,0.2,0,0.4,0.1,0.5c0.2,0.2,0.5,0.3,0.7,0.1c0.5-0.2,0.9-0.7,1.2-1l3.8-3.2l0,0c0.6-0.5,1.9-0.2,1.6,1l0,0l-2.6,7
			c-0.1,0.3-0.1,0.6,0.1,0.8c0.3,0.4,1-0.1,1.2-0.3c0.4-0.3,0.8-0.5,1.2-0.8l1.4-0.8c0.5-0.3,0.4,0,0.2,0.2l-2.4,2.1
			c-0.6,0.6-1.3,1.2-1.9,1.7c-0.5,0.4-1.3,0.9-1.9,0.4c-0.7-0.6-0.2-1.7,0-2.4c0.1-0.3,0.2-0.7,0.3-1c0.1-0.4,0.4-1.1-0.1-1.3
			c-0.4-0.2-0.9,0.2-1.1,0.5c-0.7,0.7-1.5,1.4-2.2,2.1c-0.4,0.4-0.7,0.7-1.1,1.1c-0.3,0.3-0.7,0.7-1,1l0,0c-0.8,0.7-2,0.7-1.9-0.3
			c0,0,0.3-1.7,0.4-2.6c0-0.2,0.1-0.5,0.1-0.8c0-0.4-0.4-0.8-0.9-0.7c-0.3,0.1-0.5,0.2-0.7,0.4C362.8,262.9,355.9,266.6,356.1,266.4
			z"/>
	</g>
</g>
</svg>
